/* XPM */
static char * wall_su_xpm[] = {
"64 64 627 2",
"  	c #74726A",
". 	c #75736B",
"+ 	c #74736C",
"@ 	c #75736C",
"# 	c #76746C",
"$ 	c #787771",
"% 	c #787772",
"& 	c #787872",
"* 	c #787873",
"= 	c #76756F",
"- 	c #797874",
"; 	c #797973",
"> 	c #797974",
", 	c #75746E",
"' 	c #75746D",
") 	c #77756F",
"! 	c #73716B",
"~ 	c #706E67",
"{ 	c #5F5D55",
"] 	c #7B7B77",
"^ 	c #7A7A75",
"/ 	c #7D7D79",
"( 	c #7E7E7A",
"_ 	c #7D7E7B",
": 	c #82837F",
"< 	c #7E7F7B",
"[ 	c #80817D",
"} 	c #7F807C",
"| 	c #81827D",
"1 	c #80807C",
"2 	c #858681",
"3 	c #7F807B",
"4 	c #7F7F7A",
"5 	c #81827E",
"6 	c #858682",
"7 	c #83837E",
"8 	c #7C7C77",
"9 	c #81817D",
"0 	c #83847F",
"a 	c #80817C",
"b 	c #81817C",
"c 	c #7D7D78",
"d 	c #777670",
"e 	c #75726B",
"f 	c #737068",
"g 	c #76746D",
"h 	c #78766F",
"i 	c #7C7B75",
"j 	c #7B7B75",
"k 	c #7A7974",
"l 	c #7C7B76",
"m 	c #7B7A76",
"n 	c #797873",
"o 	c #777671",
"p 	c #797872",
"q 	c #76746E",
"r 	c #716F69",
"s 	c #636058",
"t 	c #838480",
"u 	c #848580",
"v 	c #848581",
"w 	c #848480",
"x 	c #7E7E79",
"y 	c #7D7C77",
"z 	c #7D7D77",
"A 	c #77746D",
"B 	c #7A7973",
"C 	c #7A7A74",
"D 	c #7B7A75",
"E 	c #7F7E79",
"F 	c #777772",
"G 	c #7E7D78",
"H 	c #7A7975",
"I 	c #74736D",
"J 	c #71706A",
"K 	c #6F6E68",
"L 	c #6E6C65",
"M 	c #646159",
"N 	c #797A75",
"O 	c #767570",
"P 	c #858784",
"Q 	c #83837F",
"R 	c #7C7C78",
"S 	c #7B7B76",
"T 	c #82827C",
"U 	c #7C7C76",
"V 	c #7C7B77",
"W 	c #76746F",
"X 	c #7D7C78",
"Y 	c #777570",
"Z 	c #74726C",
"` 	c #706F69",
" .	c #716F68",
"..	c #68655C",
"+.	c #787773",
"@.	c #7E7F7A",
"#.	c #7D7E79",
"$.	c #787670",
"%.	c #747169",
"&.	c #78756E",
"*.	c #77746C",
"=.	c #7B7A74",
"-.	c #80807B",
";.	c #777771",
">.	c #73726B",
",.	c #7F7D76",
"'.	c #6B685F",
").	c #7F7F7B",
"!.	c #787770",
"~.	c #797772",
"{.	c #7B7973",
"].	c #7B7A73",
"^.	c #7B7972",
"/.	c #787671",
"(.	c #797771",
"_.	c #7D7C76",
":.	c #7E7C75",
"<.	c #7F7E78",
"[.	c #7E7D79",
"}.	c #81807B",
"|.	c #7F7F79",
"1.	c #7E7E78",
"2.	c #7F7D77",
"3.	c #726F66",
"4.	c #868884",
"5.	c #82837E",
"6.	c #7F807A",
"7.	c #81817B",
"8.	c #7B7974",
"9.	c #797871",
"0.	c #7C7C75",
"a.	c #83827C",
"b.	c #807F79",
"c.	c #7A7870",
"d.	c #7A7972",
"e.	c #888883",
"f.	c #868782",
"g.	c #62615C",
"h.	c #65645E",
"i.	c #66655F",
"j.	c #65645F",
"k.	c #676762",
"l.	c #6A6964",
"m.	c #6D6D69",
"n.	c #6D6E6A",
"o.	c #6C6C68",
"p.	c #676865",
"q.	c #6D6D6A",
"r.	c #5B5A56",
"s.	c #63625E",
"t.	c #656560",
"u.	c #676763",
"v.	c #64635E",
"w.	c #6E6E69",
"x.	c #6C6C67",
"y.	c #686762",
"z.	c #6A6965",
"A.	c #666561",
"B.	c #686763",
"C.	c #696864",
"D.	c #61605B",
"E.	c #605F5A",
"F.	c #595853",
"G.	c #595651",
"H.	c #5F5A50",
"I.	c #5F594D",
"J.	c #5F5B54",
"K.	c #605E59",
"L.	c #5E5C57",
"M.	c #5B5952",
"N.	c #5C5953",
"O.	c #5D5C56",
"P.	c #656561",
"Q.	c #5D5E5A",
"R.	c #696965",
"S.	c #686863",
"T.	c #5F5F5A",
"U.	c #5F5E5A",
"V.	c #5C5C57",
"W.	c #5C5B56",
"X.	c #5A5852",
"Y.	c #5F5E57",
"Z.	c #625F58",
"`.	c #65625B",
" +	c #76756E",
".+	c #6A6760",
"++	c #64615A",
"@+	c #727069",
"#+	c #6F6C65",
"$+	c #6B6962",
"%+	c #6E6B65",
"&+	c #68665F",
"*+	c #66635C",
"=+	c #68645D",
"-+	c #78746A",
";+	c #757269",
">+	c #6F6B60",
",+	c #706B60",
"'+	c #6F6A5F",
")+	c #706C61",
"!+	c #767369",
"~+	c #79766D",
"{+	c #75736A",
"]+	c #757066",
"^+	c #686257",
"/+	c #6E6A62",
"(+	c #7D7A72",
"_+	c #7E7B72",
":+	c #7E7A71",
"<+	c #7B776F",
"[+	c #7C776D",
"}+	c #7D7970",
"|+	c #79756D",
"1+	c #78756D",
"2+	c #76736A",
"3+	c #79766E",
"4+	c #7A7871",
"5+	c #7E7B74",
"6+	c #7C7A72",
"7+	c #7F7C74",
"8+	c #7E7B73",
"9+	c #807D74",
"0+	c #78756B",
"a+	c #7C7568",
"b+	c #807767",
"c+	c #7E7769",
"d+	c #827B6D",
"e+	c #7C766A",
"f+	c #7E776B",
"g+	c #7F786C",
"h+	c #817B6F",
"i+	c #7C766B",
"j+	c #757166",
"k+	c #736D63",
"l+	c #726C62",
"m+	c #756F65",
"n+	c #777165",
"o+	c #767065",
"p+	c #5B574E",
"q+	c #6B665C",
"r+	c #7A756B",
"s+	c #7A766B",
"t+	c #79766C",
"u+	c #7E7A70",
"v+	c #7C796F",
"w+	c #7C786F",
"x+	c #7A776E",
"y+	c #7D7A71",
"z+	c #7B786F",
"A+	c #7B786E",
"B+	c #7B766D",
"C+	c #797469",
"D+	c #706D64",
"E+	c #716E65",
"F+	c #706E65",
"G+	c #737069",
"H+	c #77736A",
"I+	c #635F55",
"J+	c #68665E",
"K+	c #716E66",
"L+	c #726F67",
"M+	c #706E66",
"N+	c #716F66",
"O+	c #706D65",
"P+	c #6F6D65",
"Q+	c #73716A",
"R+	c #75726A",
"S+	c #706C63",
"T+	c #6D6961",
"U+	c #6D6A61",
"V+	c #6D6A62",
"W+	c #6D6B63",
"X+	c #6E6B63",
"Y+	c #6E6B62",
"Z+	c #6F6B62",
"`+	c #6D6A60",
" @	c #6D6B62",
".@	c #6C695F",
"+@	c #6B675E",
"@@	c #6C6960",
"#@	c #4F4B42",
"$@	c #646057",
"%@	c #747168",
"&@	c #737169",
"*@	c #6E6C64",
"=@	c #6F6C64",
"-@	c #79776F",
";@	c #77756E",
">@	c #615E56",
",@	c #66635B",
"'@	c #75736D",
")@	c #6F6D67",
"!@	c #716F67",
"~@	c #727068",
"{@	c #747269",
"]@	c #736F67",
"^@	c #727067",
"/@	c #6C6961",
"(@	c #545048",
"_@	c #737067",
":@	c #737168",
"<@	c #76736B",
"[@	c #605C55",
"}@	c #74726B",
"|@	c #72706A",
"1@	c #77766F",
"2@	c #78756F",
"3@	c #56524B",
"4@	c #68655D",
"5@	c #77756D",
"6@	c #5F5C54",
"7@	c #73726C",
"8@	c #6D6B64",
"9@	c #58554D",
"0@	c #67645C",
"a@	c #797770",
"b@	c #84837C",
"c@	c #686660",
"d@	c #78766E",
"e@	c #72716A",
"f@	c #6C6A61",
"g@	c #59564D",
"h@	c #69665E",
"i@	c #76746B",
"j@	c #615E55",
"k@	c #68655E",
"l@	c #716E67",
"m@	c #6C6A62",
"n@	c #5A564D",
"o@	c #6A665E",
"p@	c #76736C",
"q@	c #646058",
"r@	c #726F68",
"s@	c #59554E",
"t@	c #78746C",
"u@	c #79766F",
"v@	c #747167",
"w@	c #78746D",
"x@	c #7D7B73",
"y@	c #5B574F",
"z@	c #68665D",
"A@	c #696660",
"B@	c #71706B",
"C@	c #74716A",
"D@	c #5B5850",
"E@	c #717068",
"F@	c #6B6860",
"G@	c #757169",
"H@	c #5A574F",
"I@	c #65625A",
"J@	c #67645D",
"K@	c #717069",
"L@	c #74736B",
"M@	c #76756D",
"N@	c #6C6A63",
"O@	c #5C5851",
"P@	c #67655C",
"Q@	c #6F6F66",
"R@	c #66645C",
"S@	c #5A564E",
"T@	c #706E68",
"U@	c #777672",
"V@	c #72716B",
"W@	c #59554D",
"X@	c #65635B",
"Y@	c #72726B",
"Z@	c #6F6E67",
"`@	c #6E6B64",
" #	c #6E6D67",
".#	c #66635A",
"+#	c #73726A",
"@#	c #72706B",
"##	c #7D7B75",
"$#	c #67635B",
"%#	c #77746E",
"&#	c #727169",
"*#	c #5B564E",
"=#	c #69675F",
"-#	c #6D6D68",
";#	c #73726D",
">#	c #72716C",
",#	c #74736E",
"'#	c #74746E",
")#	c #6D6B65",
"!#	c #57534B",
"~#	c #6B675D",
"{#	c #6D6A63",
"]#	c #6F6D66",
"^#	c #4E4A43",
"/#	c #75736E",
"(#	c #6A6862",
"_#	c #6B6963",
":#	c #6A6861",
"<#	c #6A6761",
"[#	c #6C6962",
"}#	c #6B6861",
"|#	c #6A675F",
"1#	c #6A665F",
"2#	c #6C6860",
"3#	c #726D63",
"4#	c #7B756A",
"5#	c #7C7569",
"6#	c #716C62",
"7#	c #6D6960",
"8#	c #6E695F",
"9#	c #726C61",
"0#	c #706C62",
"a#	c #726B61",
"b#	c #736E63",
"c#	c #716B61",
"d#	c #716B60",
"e#	c #706B61",
"f#	c #706A5F",
"g#	c #71695C",
"h#	c #50463B",
"i#	c #6A6256",
"j#	c #6E675B",
"k#	c #736D61",
"l#	c #726C60",
"m#	c #706A60",
"n#	c #716B5F",
"o#	c #746E62",
"p#	c #6E695E",
"q#	c #68645A",
"r#	c #68645B",
"s#	c #6F6B61",
"t#	c #6C685F",
"u#	c #6D685E",
"v#	c #69655C",
"w#	c #656159",
"x#	c #605D56",
"y#	c #69655E",
"z#	c #6F6B63",
"A#	c #716D64",
"B#	c #6B6862",
"C#	c #716D63",
"D#	c #746D62",
"E#	c #6A6357",
"F#	c #7B776E",
"G#	c #78756C",
"H#	c #7C7970",
"I#	c #77736B",
"J#	c #77746B",
"K#	c #7C7971",
"L#	c #7B7970",
"M#	c #7F7C73",
"N#	c #71716A",
"O#	c #6F706A",
"P#	c #70706B",
"Q#	c #71716B",
"R#	c #6F6F69",
"S#	c #6D6C67",
"T#	c #6B6A64",
"U#	c #6B6A65",
"V#	c #696862",
"W#	c #6D6C66",
"X#	c #6F6E69",
"Y#	c #6C685E",
"Z#	c #82807A",
"`#	c #817F78",
" $	c #6D6B66",
".$	c #72726C",
"+$	c #70706A",
"@$	c #75746F",
"#$	c #6F6D68",
"$$	c #73736D",
"%$	c #75756F",
"&$	c #706F6A",
"*$	c #6A675E",
"=$	c #767571",
"-$	c #74746D",
";$	c #69665C",
">$	c #6C675D",
",$	c #6E6C67",
"'$	c #6D695F",
")$	c #6B665B",
"!$	c #6E6D66",
"~$	c #656158",
"{$	c #75746C",
"]$	c #72726A",
"^$	c #7A7872",
"/$	c #73736C",
"($	c #6C6B64",
"_$	c #6E6B61",
":$	c #706E69",
"<$	c #706F68",
"[$	c #6E6D65",
"}$	c #6E6A60",
"|$	c #696760",
"1$	c #6B6A62",
"2$	c #706D66",
"3$	c #6C6B65",
"4$	c #696761",
"5$	c #6F6A60",
"6$	c #6A665D",
"7$	c #777773",
"8$	c #6D675C",
"9$	c #7B7C77",
"0$	c #7C7D78",
"a$	c #80807A",
"b$	c #7A7A73",
"c$	c #858580",
"d$	c #7C7A74",
"e$	c #6E6759",
"f$	c #736C5F",
"g$	c #7F7D75",
"h$	c #838077",
"i$	c #7C7A73",
"j$	c #81807A",
"k$	c #82827D",
"l$	c #807F7A",
"m$	c #59564F",
"n$	c #55544F",
"o$	c #5D5C57",
"p$	c #5F5D58",
"q$	c #595852",
"r$	c #55534D",
"s$	c #514F49",
"t$	c #52514B",
"u$	c #53504A",
"v$	c #5C5952",
"w$	c #625E56",
"x$	c #66625A",
"y$	c #635F56",
"z$	c #636057",
"A$	c #69665F",
"B$	c #65615A",
"C$	c #67635A",
"D$	c #665F52",
"E$	c #605B52",
"F$	c #66635D",
"G$	c #676660",
"H$	c #676661",
"I$	c #686761",
"J$	c #64635D",
"K$	c #666560",
"L$	c #6A6A67",
"M$	c #696966",
"N$	c #646460",
"O$	c #54524C",
"P$	c #63635E",
"Q$	c #61605A",
"R$	c #62625D",
"S$	c #64635F",
"T$	c #666661",
"U$	c #5E5D58",
"V$	c #7E786B",
"W$	c #80796D",
"X$	c #7B7469",
"Y$	c #736F65",
"Z$	c #746E63",
"`$	c #767166",
" %	c #787165",
".%	c #767064",
"+%	c #666158",
"@%	c #7B776C",
"#%	c #7A776D",
"$%	c #7E7B71",
"%%	c #7D796F",
"&%	c #7A786F",
"*%	c #79756A",
"=%	c #7A7569",
"-%	c #797468",
";%	c #777267",
">%	c #747066",
",%	c #757065",
"'%	c #7A766C",
")%	c #757268",
"!%	c #716C61",
"~%	c #716D62",
"{%	c #7C786E",
"]%	c #807C73",
"^%	c #6F6C62",
"/%	c #6B685E",
"(%	c #5B564D",
"_%	c #6F6C63",
":%	c #6F6D64",
"<%	c #615C53",
"[%	c #69675E",
"}%	c #737167",
"|%	c #7A7770",
"1%	c #615D55",
"2%	c #7A7A76",
"3%	c #605C54",
"4%	c #77766E",
"5%	c #85847D",
"6%	c #67645B",
"7%	c #777571",
"8%	c #79756E",
"9%	c #7B7971",
"0%	c #7D7B74",
"a%	c #625F57",
"b%	c #727066",
"c%	c #6A685F",
"d%	c #717067",
"e%	c #6B6960",
"f%	c #726F69",
"g%	c #66645B",
"h%	c #6A6860",
"i%	c #706F67",
"j%	c #67655D",
"k%	c #716F6A",
"l%	c #69655D",
"m%	c #73716C",
"n%	c #6E6C66",
"o%	c #6C6B66",
"p%	c #524E46",
"q%	c #68635A",
"r%	c #6E685D",
"s%	c #69655B",
"t%	c #716C63",
"u%	c #6E685E",
"v%	c #635F58",
"w%	c #5E5C54",
"x%	c #615F58",
"y%	c #67645E",
"z%	c #605D57",
"A%	c #62605A",
"B%	c #66655E",
"C%	c #787268",
"D%	c #7B7569",
"E%	c #756F64",
"F%	c #6D675D",
"G%	c #6F695F",
"H%	c #7B7870",
"I%	c #5D5B54",
"J%	c #7B7871",
"    .   + @ # $ % $ & % $ * = = - ; > % , ' , ) , ! ) ! ~ { > ] ^ > / ( _ : < [ : [ [ } } | 1 2 3 4 5 6 7 | 8 9 8 0 a b c & d e ",
"    f g d % h i $ j k l m n ^ n o ^ p k o ) q = ) = @ r ~ s ^ > * o ^ ( < t : u v : [ < } w | c x 3 a w 0 3 x x x j y x c k z g ",
"  . A @ B k C B k i > k D ; D E F G c c H q , I , , J K L M % N , O ^ c } 9 P t : 5 1 4 Q x R ] x ^ S T 3 b ^ k % U V = ; W d A ",
"@ @ A = d l c k G G S k n k ; 4 c x % z S X Y , , , Z `  ...S < +.^ S ] @.9 3 #.: @.c x x #.n o D > > k j u B $.g S y l n * ) %.",
"g &.*.) o +.C k =.n H k l S ^ -.S x l D S ;.D W >.>.q & ,.'.R v @.8 ^ #.).9 5 4 -.).)./ D S k d h !.g B $ p d A . !.~.k ^ ) A . ",
"{.].^./.~.n (._.:.B <.p y l D E 9 7 X ( 8 #.x [.z }.|.1.2.3.$ 6 v 0 < ; 8 x 5 0 4.t 5.v 9 7 6.7.8.=.9.0.a.b.b c.d.e.f.7 D y =.> ",
"g.h.i.j.k.l.m.n.o.p.q.r.s.t.u.v.w.x.y.z.A.B.C.k.u.D.E.F.G.H.I.J.v.K.L.M.N.O.P.Q.R.S.T.u.T.U.V.W.X.Y.Z.`. +.+++s ++@+#+$+%+&+*+=+",
"-+;+>+,+'+)+!+~+{+]+^+/+(+_+:+<+[+}+|+1+2+3+4+5+6+7+8+9+0+a+b+c+d+d+e+f+f+g+h+i+j+k+l+m+n+o+]+p+q+r+s+t+u+v+w+x+y+v+z+z+A+~+B+C+",
"f D+E+E+D+F+G+f f H+I+J+K+K+f f L+L+M+M+N+O+D+P+Q+  G+R+3.S+T+U+V+W+X+Y+D+D+F+E+E+Z+`+ @.@+@@@#@$@%@F+R+%.f &@L+&@L+D+O+*@=@#+*@",
"-@;@9.g &.# . # . L+>@,@X+# @ h A  +) /.$.q  +$ $ d W I '@)@O+!@~@~@3.L+&@{@]@^@f E+3.*@/@@@@@(@,@f f _@:@2+# R+-@H+R+!@%.~@%.<@",
"^ D n ~.;@<@;@. f *@[@`.%.}@q @ # '@@ ;@o o = $.h ) o o o |@~ 1@*.@ A # {@@ 2@  . G+F+O+V+X+/@3@4@^@&@@ . 5@h &.h &@*.  h ;@A . ",
"k D p (.d :@%.{@:@# 6@&+&@/.$.2@$.q # $./.o O ) h * $ ) = = 7@, @ &@&@~@_@. @ }@;@A %.N+*@8@V+9@0@~@. (.5@A &.a@a@&.. # h # ;@A ",
"d Y @ Y &.5@R+:@. b@[@c@!@h $.d@A g &.$.;@Y o o o $ n ^  += ' >.e@&@  !@  . e &@g &.  F+*@f@=@g@h@!@&@g R+2+i@&.&.&.*.;@R+# 5@1+",
") o d p !.!.$.$ d 3+j@k@}@!.$ *.. R+# <@. <@= d O = , Y o o q }@Q+>.l@~@:@&@%.}@  ;@  !@K+m@*@n@o@K+_@. *.R+*.. <@5@h # A <@*.p@",
"!.$.$ h &.1+&.H k 6+q@*+!@p@1+h &.g A ;@R+{+g + Z , Y o = O , Z e@e@r@Q+}@  g # 1+*.}@!@F+W+V+s@4@P+R+{@  R+<@t@h a@h ;@u@a@A v@",
"!.d@;@w@1+1+p@k c x@s &+;+) = = 2@' + q '@q , + >.' $.% o d ) /., }@!@&@L+&@p@p@}@R+%.M+L X+~@y@z@L :@%@<@. *.&.d@^ (.h ' h p@  ",
";@1+*.1+d@h !.> n E M A@Q+q '@' + g @ '@+ I , = Z '@Y $ d % q O B@Q+%.&@&@  Q+R+C@f !@M+*@O+%.D@0@O+E@:@f %.p@h $ & d @ = , , @ ",
"h g ;@1+&.&.&.o = B M F@! + + >.}@' ' , q ' + = = ;@o o o = ' q >.Q+G@^@c.e }@  ~@!@~@#+8@#+~@H@,@P+&@R+Q+'@1+$ k & % , = Z q '@",
"/.Y Y /.1+1+{+d Y h I@J@K@7@! e@L@, @ @ ' '@, d o ~.$ =.;.p = @ M@}@%.e . @ @ Q+&@~@K+P+P+N@=@O@P@K+Q@@+Z $ d o d % q ' = % O ' ",
"^ n n o ;@&.;@O '@'@R@k@|@` e@Q+>.+ @ q '@' = o $ n n & D /.q   5@&@@+}@. }@# .   f K+ .M+N@W+S@,@*@N+T@@ o o U@d /.= Y % B o O ",
"8 k k = = O ' Z e@}@,@k@ .r J J >.V@Z , '@d O = , = o ) q = I R+;@# &@. h e Q+f   ~@K+#+8@N@=@W@X@W+K+` }@o Y ) Y * /.o % o Y Y ",
"n ; $ o Y q ' Y@r Z@,@R@`@r  #)@K@q >.@ g  +) ' Y g q Z , Y ! {@G+*.h   h + @ %.r@K+L+P+O+L N@s@R@N@ .e@q = ' Y o n % n U@$.o /.",
"; ^ - o d O + >.e@@+.#0@Q+Z |@r e@g Y ' h ;@d d /.. # g ' C@r@%@@ C@&@+#}@L@;@  @ ~@L+#+M+!@F+n@4@m@K@Q+@#e@}@' o o % o Y % o q ",
"& k > = % ' I p > ##$#0@, n = = %#/.$ n $ A ;@g q ;@;@}@~@. }@&#L+M+~@R+&@. }@f e &@}@~@O+&@. *#=#~@@ V@K@V@}@'@' = q $.Y p o q ",
"-#;#># #>#,#o ^ '#)#!#~#~@V@J K@'@I )@r 7@! V@` ;#, C@Q+L O+L+ .{##+]# .r@M+r *@@+Q+l@T@ .|@$+^#q@M+|@ .!  . .@#|@= = r  #p /#;#",
"(#_#:#<#[#}#|#1#2#3#4#5#6#7#8#9#0#Z+a#b#c#d#e#6#3#f#f#b#g#h#i#j#j#k#l#m#n#o#p#q#r#q+q+8#s#0#S+t#u#v#w#x#Z.k@y#$+z#S+A#S+=@:#(#B#",
", = = d , Z >.>.` K@~ Q+L !@&@^@Q+r@G+  # @ h e ~@&@E+K+C#D#E#F#G#:+H#I#J#d@K#L#u@M#_+1+R+A &@=@=@W+G+.  .I ! 7@A Q+@ ;@7@, a@{.",
"N#O#w.P#Q#J R#x. #S#T#U#T#V#W#W#K W#W#X#J ` )#L L [#=#F@|#Y#Y#h g 6+,.Z#`#B i p@h &@~@L+~@ .O+*@]#K+Z@ $)#T@K r B@Q+'@e@Q+e Q+>.",
";#.$Q#.$Q#+$7@.$7@e@+$K J w.V@+ @ >.Q#,#,#@$>#Q#+$#$*@{#F@'./@G+K+%.g q ;@  A &@G+G+M+~@L+~ P+P+T@J >.Q+|@+#'@= = = Y q '@q = = ",
"$$@$@$,#'#7@I @$I @ '@I + .$@ ' >., , @$% o %$O , &$L N@[#*$t#!@!@e <@&@f @ g . . &@;@L+p@>.'@@ }@= ' = q q = q ) $ o ) ) % % = ",
"=$q ' + + '@>., q g = q q '@A R+>.V@-$@$o O q }@. K@W#[#m@;$>$!@L+f . !@r@@ ;@g g }@p@%.. q q % , = ' o % * % n % ; % o o % % % ",
"q , + >.! + }@+ ) % ) & o '@'@R+e@>.}@' I + @ # @ Z ,$8@[#'$)$M+K+<@}@p@}@}@h # . e # *.p@, q d '@& % d n $ o $ o ; % d d o % % ",
"Z }@L@+ + q '@+ I @$= q W W Z N#e@V@! e@Q++ g Q+%.@+!$*@*@~$+@~   # $. +# @ ;@;@&.$.Y d I @$, d = Y o * W d = * Y o d = $ % > 8 ",
"J V@'@g g = {$@ '@' , + q ' Z ]$N#Y@I @ + . }@&@ .K ` K O+Y#U+M+%.@ (.^$h . h A  += = d 1@Y = p n  +, ' '@'@, o % = , = % % n C ",
"<@+#@ W % $.d = = @ I + + g ' '@/$' + }@' C@  %.W#($J Q#&@_$A#l@O+1@^.h ;@. @ ' I , q ' '@p W ) '@Y $ * >.@ '@p@@ >.'@d o % ; > ",
"+   }@@ ' ' q d Y Y Y }@>.}@+ @ + g , '@'@+ }@r :$ #<$)@~ 7#U+f -@~@@ h # ;@# '@+ ) d = O % = o o = Z ! ' q @ . @ '@'@= '@Y d d ",
"= + V@+ '@' q ' = q '@Z ) + ' g q q q + = ' + , V@X#W#[$L+}$E+@ &@L+. h @ # A e ! '@d '@o q @ q = % % = + q g . . L@, ) o o >.d ",
"d q ' + = d $ , ' + = L@= '@d d n = % = @ q '@I I &$|$1$&@0#`+M+P+M+p@  ;@%.C@e C@@ p@<@!.% % n % % * Y @$o Y = d 7@I , = , Z ) ",
"q , '@+ ' = = W I @ 7@+ = '@@$'@d Y , Y I '@I }@7@;#:#$+2$7#.@L+M+M+G+&@.   e &@A d ~.d i (.S > S S n ^ - Y n ;.n ;.W = q )  +Z ",
"' O @$+ >.>.7@I V@J }@}@Z '@' q O ' @ ' '@,# +>.J 3$4$8@W+}$Y#O+K+!@!@K+@   . *.@ B k C p D D n k k > D 4 % x 8 X C = @$'@q , B@",
"O @$7@, ;#Q#Q#R#Q#` K e@@ = ' @ 7@, Z W + J V@B@X#)#{#M+=@5$6$@+r@&@~@&@# @ g A 1@) l [.l c G V H D k n 4 c x % X 8 R ;.q I + Z ",
"- ^ F F F 7$O I , 7@ .@+e@e@+ q Z R##$!$T@ .V@V@` ~ ]# .R+8$3#p@Q+e f %.&.g h 5@) /.o > k i ~.> B S D D 4 S x U D D ;.S O >.}@= ",
"& #./ 5 < #.} 9$0$D D ' @ R+1@a$b$=.|@;#c$-.c O % p@# d$4+e$f$g$h$(+d.c.c.i${.{.% ; ^ B E j$U k$C 1.c 8 4 7 u c l$R 4 4 x x T a$",
"m$O.n$o$p$q$W.r$r$s$t$u$v$J.w$F@x$w$y$z$|#|#$#A$B$I@x$4@C$D$E$(#F$G$H$V#I$J$K$h.g.j.S.L$M$N$N$P.O$U.s.P$Q$l.A.K$H$R$s.S$S$T$U$o$",
"V$W$X$Y$o#Z$`$ %.%]++%s#@%t+#%$%%%H#~+}+}+&%w+z+0+@%*%C+=%-%;%>%,%H+H+C+'%J#)%s#!%'+~%2+3+{+,%^+S+:+8+:+z+{%}+~+G#H+1+c.(+^.]%5+",
"D+F+F+E+^%`+_$/%/%@@(%$#%@K+R+{@f &@L+Q+L+O+O+=@=@=@X+=@_%s#_%:%Y+V+P+K+=@~@D+E+A#D+F+G+_@~@2+I+A$K+K+~@~@L+L+M+M+!@M+O+O+f %.@+",
"{@L+L+_@E+N+*@/@/@f@<%[%f f :@}%. p@<@A <@e L+%.G+&@. }@%.N+~@. 5@q @ ;@' |%) (.A &.# . g @ K+1%,@#+5@@ $.w@) ) $./.q q $ !.$.q ",
"p@&.L@e ~@E+O+V+V+'.w$/@~@&@@ <@5@1+A I#J#A %.$.h A .   . *.# &.; n > l % k 2%p ~.5@<@;@. G+P+3%,@f Q+q @ *.'@'@) % o = $.h ) o ",
"@ @ L@h 5@&@!@*@W+{#I@F@f e a@;@A 1+;@&.<@{+# &.# &.1+*.&.a@p u@$ u@(.% & ^ ^ p p % R+R+%.f g 6@c@&@$ $.&.h  +g h $ o ) &.&.n % ",
". }@&@# ;@  O+`@/@L .#Y+L+&@g {@<@# ;@1+;@*.4%;+# *.d@A e /.; $.1+1+. $.* o $.;@d , *.{@%.  5%[@|$!@) (.d@A A &.(.&.Y % $.o % k ",
"&@Q+  C@;@  K+K+m@=@6% @K+f {+g . # <@<@5@h *.A <@*.# . A h A h 1+h &.7%O W ) ) &.;@. . 1@ +3+w$&+L@$.(.*.<@R+i@<@. <@= d d = q ",
"C@# *.1+# . L+F+W+V+.#f@P+R+%.  . <@*.h a@h ;@h a@A :@:@<@A # *.w@1+<@) $.|+*.8%h ) h A n n 9%$@*+!@<@&.u@&.*.5@5@R+@ g + + , o ",
"&@p@p@@ R+%.M+L `@@+4@/@L :@:@<@R+*.&.&.k (.h p@;@# :@%.%.%.. ;@A ;@;@, a@2@&.h h ) # p@% S 0%a%A$R+) = ) Y , + q q q q + >.@ d ",
"  +#e %.b% .M+#+M+%.4@c%F+d%_@:@v@*.;@(.+.h @ = ' ' '@@+%.+#~@' Y = @ q p 5@A A g 5@# ' /.& G q@=#Q+W ' ' + ' + '@' '@, = Z I ) ",
"e }@  ~@N+r@#+L #+~@0@|#P+:@R+&#' 1+(.k & & , = Z , @ }@' L@e , q d Y o n k g W = Y ' q = q =.q@F@}@+ @ >.Z '@'@g q ' Z q = q /.",
"L@@ &@&@~@!@P+P+N@P+*$e%M+M+@+Z $ ) o d $ = ' = ~.O '@q ' + , q , > d % d * = Y ) ' , ) Y d ) I@J@f%}@>.e@+ , + + ' '@q o o +.$ ",
"}@# . Q+^@K+L+M+{#8@g%[%*@M+<$@ o o o d % = O % k o O A @ ' q o Y d O > k ^ p > /.) q q d '@Z ,@k@@+J Q+V@>.I @ , '@, q o $.* * ",
". %.f   ~@M+=@8@N@P+,@=#{#M+` + o Y ) O +./.o * o d O A '@, /.% % ; U@; D y k k = d o q >.e@@ ,@k@T@` J J >.e@+ q '@d = W q = /.",
"L@. %.~@!@r@P+P+L `@6%h%N@!@K@, = '@Y o > % n % o o $ q @ Y /.) % p % > k n n $ o 7%O , +#` i%,@j%L J  #)@J q >.+ # g = + d g A ",
"L@g }@@ f r@#+2$!@!@4@F@m@!@! @#e@}@' d o % o Y % o ;@) ) ' = o % o /.S ^ k ^ * o d Y + >.|@~@.#J@G+}@J r |@q d ' 1@q Y ) $ e # ",
". C@&@}@&@+#~@]#f # P@/@E@@ e@k%e@>.@ ' = q Y Y n o q ) = I $.B Y = ;@% $ p k > = % -$/$& k _.$#0@q p )  +;@$ % n $ g ;@q ;@;@A ",
"=@i%8@!@@+~ ]#M+ .m@a%l%O+ .~ Q+ .~ k%r '@'@<$)#d , m%% V@n%@#V@Q#m%= 7@V@x.P#B@o%K B@I B ,#W#p%q%z#|@)@L |@V@~ L r @+k%)@` 7@~@",
"9#r%C$q%s%v#u#}$5$t%6#u%r#v%w%x%h@*$[#S+D+D+_%z#:#B#N@y%x#z%A%I$[#l.y.i.B%$+<#4$.+:#A@A$o@v#'$C%D%E%u#F%G%S+`+m#c#e#p#8#'$c#5$8$",
"c.:+H%u@9+x@1+R+t@:@D+F+]#}@R+~@q ! + g @ ) $.+ = 4+i$&.u@I%W#i i$d C i {.$.$./.n p ;@= ;@. ;@  3+C@A a@u@J%d@d@h h 1+c.&.G@R+_@"};
