/* XPM */
static char * wall_we_xpm[] = {
"64 64 622 2",
"  	c #4E443C",
". 	c #483E37",
"+ 	c #453B34",
"@ 	c #463C35",
"# 	c #483F38",
"$ 	c #4F443C",
"% 	c #52473F",
"& 	c #453C35",
"* 	c #473D35",
"= 	c #443B33",
"- 	c #362E28",
"; 	c #14110E",
"> 	c #020101",
", 	c #171411",
"' 	c #332C26",
") 	c #27221E",
"! 	c #110F0C",
"~ 	c #110E0B",
"{ 	c #1B1714",
"] 	c #25201B",
"^ 	c #3C342E",
"/ 	c #53483F",
"( 	c #554A41",
"_ 	c #50463D",
": 	c #564B42",
"< 	c #5A4E45",
"[ 	c #5C5046",
"} 	c #5E5249",
"| 	c #594D45",
"1 	c #5C5047",
"2 	c #63564B",
"3 	c #5F534A",
"4 	c #61544B",
"5 	c #5E5248",
"6 	c #564B43",
"7 	c #564A41",
"8 	c #574B42",
"9 	c #4C423A",
"0 	c #4B4139",
"a 	c #413831",
"b 	c #080706",
"c 	c #39312B",
"d 	c #554940",
"e 	c #594E44",
"f 	c #5E5147",
"g 	c #5D5147",
"h 	c #5B4F46",
"i 	c #594D43",
"j 	c #5A4E44",
"k 	c #4E443B",
"l 	c #51463E",
"m 	c #000000",
"n 	c #040403",
"o 	c #0C0A08",
"p 	c #0F0D0A",
"q 	c #14120E",
"r 	c #191512",
"s 	c #1C1814",
"t 	c #161310",
"u 	c #191511",
"v 	c #15120F",
"w 	c #1F1A17",
"x 	c #28221E",
"y 	c #312A25",
"z 	c #38302A",
"A 	c #443A33",
"B 	c #3F3730",
"C 	c #524840",
"D 	c #171310",
"E 	c #0B0B08",
"F 	c #030302",
"G 	c #030202",
"H 	c #050403",
"I 	c #090706",
"J 	c #0C0A09",
"K 	c #040303",
"L 	c #050404",
"M 	c #0E0C09",
"N 	c #120F0D",
"O 	c #1A1713",
"P 	c #211C19",
"Q 	c #191612",
"R 	c #13100D",
"S 	c #0A0806",
"T 	c #0B0907",
"U 	c #010000",
"V 	c #080705",
"W 	c #1A1512",
"X 	c #201C18",
"Y 	c #26211D",
"Z 	c #332C27",
"` 	c #342D27",
" .	c #2B2420",
"..	c #29231E",
"+.	c #231D1A",
"@.	c #221E1A",
"#.	c #2D2722",
"$.	c #2D2621",
"%.	c #26211C",
"&.	c #241F1A",
"*.	c #29241F",
"=.	c #29231F",
"-.	c #594E45",
";.	c #65584E",
">.	c #7A6A5E",
",.	c #7E6E61",
"'.	c #7E6E60",
").	c #806F62",
"!.	c #847366",
"~.	c #857466",
"{.	c #837264",
"].	c #7B6B5F",
"^.	c #746558",
"/.	c #77675B",
"(.	c #887768",
"_.	c #877567",
":.	c #887667",
"<.	c #877566",
"[.	c #817062",
"}.	c #75655A",
"|.	c #716256",
"1.	c #706156",
"2.	c #61544A",
"3.	c #605349",
"4.	c #423932",
"5.	c #413932",
"6.	c #1A1613",
"7.	c #544940",
"8.	c #514740",
"9.	c #463D35",
"0.	c #433A33",
"a.	c #443B34",
"b.	c #493F37",
"c.	c #52483F",
"d.	c #554A42",
"e.	c #62544A",
"f.	c #685B51",
"g.	c #6C5D51",
"h.	c #6A5C50",
"i.	c #695B51",
"j.	c #706155",
"k.	c #746559",
"l.	c #746459",
"m.	c #756559",
"n.	c #76665A",
"o.	c #76655A",
"p.	c #78675C",
"q.	c #78685D",
"r.	c #76675B",
"s.	c #78685C",
"t.	c #7B6B5E",
"u.	c #7F6E60",
"v.	c #7C6C5F",
"w.	c #52473E",
"x.	c #66594E",
"y.	c #64574C",
"z.	c #7D6D60",
"A.	c #8B796A",
"B.	c #8D7B6C",
"C.	c #8C7A6B",
"D.	c #8F7D6E",
"E.	c #8F7C6D",
"F.	c #8E7B6C",
"G.	c #897768",
"H.	c #816F61",
"I.	c #857365",
"J.	c #867466",
"K.	c #897769",
"L.	c #887668",
"M.	c #827062",
"N.	c #837263",
"O.	c #7C6B5E",
"P.	c #837163",
"Q.	c #7E6C5F",
"R.	c #79685C",
"S.	c #362E29",
"T.	c #1D1915",
"U.	c #726257",
"V.	c #7C6B5F",
"W.	c #79695C",
"X.	c #79685B",
"Y.	c #766659",
"Z.	c #736457",
"`.	c #756558",
" +	c #7B6A5D",
".+	c #77675A",
"++	c #716255",
"@+	c #716155",
"#+	c #746456",
"$+	c #746458",
"%+	c #78675A",
"&+	c #7A695C",
"*+	c #78685B",
"=+	c #7A6A5D",
"-+	c #7E6D60",
";+	c #7D6B5E",
">+	c #51453E",
",+	c #64574E",
"'+	c #917E6F",
")+	c #8A7869",
"!+	c #827163",
"~+	c #847264",
"{+	c #8A786A",
"]+	c #907D6E",
"^+	c #827063",
"/+	c #7D6C5F",
"(+	c #7F6D60",
"_+	c #736356",
":+	c #746457",
"<+	c #726256",
"[+	c #6C5E53",
"}+	c #6E6054",
"|+	c #6B5D52",
"1+	c #6E5F54",
"2+	c #776659",
"3+	c #776658",
"4+	c #756659",
"5+	c #4D433B",
"6+	c #8B796B",
"7+	c #867465",
"8+	c #78675B",
"9+	c #2F2823",
"0+	c #322B26",
"a+	c #7B6A5E",
"b+	c #7C6A5E",
"c+	c #706255",
"d+	c #695B4F",
"e+	c #695C51",
"f+	c #726356",
"g+	c #6F6155",
"h+	c #8B786A",
"i+	c #8C796B",
"j+	c #8D7A6C",
"k+	c #8D7A6B",
"l+	c #847364",
"m+	c #7C6B5D",
"n+	c #221D19",
"o+	c #352E28",
"p+	c #7A695D",
"q+	c #726357",
"r+	c #766557",
"s+	c #6D5E53",
"t+	c #6D5F53",
"u+	c #6A5C51",
"v+	c #867365",
"w+	c #8B7A6A",
"x+	c #8C796A",
"y+	c #1F1A16",
"z+	c #3A322C",
"A+	c #766558",
"B+	c #706154",
"C+	c #6A5D52",
"D+	c #6F6054",
"E+	c #6C5E52",
"F+	c #938071",
"G+	c #978374",
"H+	c #927F70",
"I+	c #816F62",
"J+	c #493F38",
"K+	c #3E362F",
"L+	c #756557",
"M+	c #6B5E52",
"N+	c #6D5F54",
"O+	c #968273",
"P+	c #907E6F",
"Q+	c #8E7C6D",
"R+	c #7E6D5F",
"S+	c #77665A",
"T+	c #776759",
"U+	c #6E6053",
"V+	c #6A5C52",
"W+	c #958273",
"X+	c #968274",
"Y+	c #8F7C6E",
"Z+	c #806F61",
"`+	c #7D6B5F",
" @	c #4B413A",
".@	c #7B695C",
"+@	c #766658",
"@@	c #726255",
"#@	c #6A5D51",
"$@	c #685A50",
"%@	c #66594F",
"&@	c #675A50",
"*@	c #948172",
"=@	c #968374",
"-@	c #978475",
";@	c #7D6C5E",
">@	c #79695D",
",@	c #6F6053",
"'@	c #6E5F53",
")@	c #6B5D53",
"!@	c #685B50",
"~@	c #6D5E52",
"{@	c #917E70",
"]@	c #998576",
"^@	c #988475",
"/@	c #978375",
"(@	c #958172",
"_@	c #403730",
":@	c #6B5D51",
"<@	c #675A51",
"[@	c #65584D",
"}@	c #988576",
"|@	c #978474",
"1@	c #403831",
"2@	c #695C52",
"3@	c #695C50",
"4@	c #695B50",
"5@	c #675A4F",
"6@	c #917F70",
"7@	c #968373",
"8@	c #7E6C5E",
"9@	c #806E61",
"0@	c #3E352E",
"a@	c #685C52",
"b@	c #6F6154",
"c@	c #63564C",
"d@	c #817063",
"e@	c #8E7B6D",
"f@	c #1D1916",
"g@	c #67594F",
"h@	c #685B4F",
"i@	c #66584E",
"j@	c #61554B",
"k@	c #8A7769",
"l@	c #867566",
"m@	c #7F6D5F",
"n@	c #0C0907",
"o@	c #79695B",
"p@	c #6C5D52",
"q@	c #685A4F",
"r@	c #62554B",
"s@	c #837164",
"t@	c #9B8778",
"u@	c #847263",
"v@	c #64564C",
"w@	c #5D5148",
"x@	c #302A25",
"y@	c #716356",
"z@	c #65594E",
"A@	c #5F5249",
"B@	c #9A8677",
"C@	c #9A8676",
"D@	c #5B4E45",
"E@	c #322B25",
"F@	c #79675A",
"G@	c #998677",
"H@	c #958173",
"I@	c #6E6055",
"J@	c #66584D",
"K@	c #6B5E54",
"L@	c #302925",
"M@	c #332D27",
"N@	c #7B6B60",
"O@	c #5D5047",
"P@	c #7F6E61",
"Q@	c #877669",
"R@	c #7D6D5F",
"S@	c #6B5C51",
"T@	c #5B4F47",
"U@	c #39322C",
"V@	c #736357",
"W@	c #2C2621",
"X@	c #37302B",
"Y@	c #4F453D",
"Z@	c #726358",
"`@	c #807062",
" #	c #7C6C5E",
".#	c #817064",
"+#	c #7D6D61",
"@#	c #807063",
"##	c #5E5148",
"$#	c #514840",
"%#	c #50473F",
"&#	c #534840",
"*#	c #403732",
"=#	c #4A413A",
"-#	c #2E2823",
";#	c #716257",
">#	c #5F5248",
",#	c #65574C",
"'#	c #60544A",
")#	c #584D44",
"!#	c #50453D",
"~#	c #010101",
"{#	c #020201",
"]#	c #15110E",
"^#	c #2E2723",
"/#	c #2A241F",
"(#	c #2C2622",
"_#	c #241F1B",
":#	c #302924",
"<#	c #1C1815",
"[#	c #130F0C",
"}#	c #0D0A08",
"|#	c #120F0C",
"1#	c #181411",
"2#	c #13110E",
"3#	c #0F0E0C",
"4#	c #0D0B08",
"5#	c #120E0B",
"6#	c #100E0B",
"7#	c #100D0A",
"8#	c #231E1A",
"9#	c #201B17",
"0#	c #211D19",
"a#	c #1D1815",
"b#	c #1B1713",
"c#	c #1A1612",
"d#	c #13100E",
"e#	c #211B18",
"f#	c #1F1B17",
"g#	c #1D1A17",
"h#	c #1B1613",
"i#	c #1E1A17",
"j#	c #24201C",
"k#	c #221D1A",
"l#	c #1E1A16",
"m#	c #1B1815",
"n#	c #3B332D",
"o#	c #3D352E",
"p#	c #726459",
"q#	c #77685C",
"r#	c #7A6B5F",
"s#	c #827164",
"t#	c #423A33",
"u#	c #2E2924",
"v#	c #6F6157",
"w#	c #685C51",
"x#	c #736458",
"y#	c #6F6056",
"z#	c #6D5F56",
"A#	c #615349",
"B#	c #605348",
"C#	c #5F5349",
"D#	c #63554B",
"E#	c #60534B",
"F#	c #62564D",
"G#	c #534941",
"H#	c #5B5046",
"I#	c #584C43",
"J#	c #594D44",
"K#	c #544A41",
"L#	c #544941",
"M#	c #7D6C60",
"N#	c #948071",
"O#	c #938072",
"P#	c #847365",
"Q#	c #756457",
"R#	c #766559",
"S#	c #28231E",
"T#	c #675A4E",
"U#	c #736456",
"V#	c #9B8777",
"W#	c #958272",
"X#	c #413933",
"Y#	c #928071",
"Z#	c #26201C",
"`#	c #6A5B4F",
" $	c #5A4D45",
".$	c #3A312B",
"+$	c #27211D",
"@$	c #5C4F46",
"#$	c #60534A",
"$$	c #3F3630",
"%$	c #948072",
"&$	c #857366",
"*$	c #3E352F",
"=$	c #27221D",
"-$	c #372F29",
";$	c #62554C",
">$	c #4D433C",
",$	c #544942",
"'$	c #4A4039",
")$	c #2A2420",
"!$	c #6F6055",
"~$	c #534841",
"{$	c #64574D",
"]$	c #5C5147",
"^$	c #2B2520",
"/$	c #6D5F52",
"($	c #65574D",
"_$	c #675B51",
":$	c #473E37",
"<$	c #857465",
"[$	c #7E6C60",
"}$	c #4C423B",
"|$	c #25201C",
"1$	c #362F29",
"2$	c #665A50",
"3$	c #4D443C",
"4$	c #66584F",
"5$	c #61554A",
"6$	c #37302A",
"7$	c #6B5E53",
"8$	c #716357",
"9$	c #5B4E46",
"0$	c #907D6F",
"a$	c #3E3630",
"b$	c #857364",
"c$	c #50453C",
"d$	c #423933",
"e$	c #9A8577",
"f$	c #463D36",
"g$	c #7C6A5D",
"h$	c #9D8979",
"i$	c #9C8878",
"j$	c #998676",
"k$	c #403731",
"l$	c #4A4038",
"m$	c #665950",
"n$	c #403832",
"o$	c #040302",
"p$	c #494039",
"q$	c #4F453C",
"r$	c #9B8677",
"s$	c #9D8879",
"t$	c #9E897A",
"u$	c #9C8879",
"v$	c #8A796A",
"w$	c #79685A",
"x$	c #433933",
"y$	c #574B43",
"z$	c #8C796C",
"A$	c #927F71",
"B$	c #3C352F",
"C$	c #726458",
"D$	c #716154",
"E$	c #3F3731",
"F$	c #050504",
"G$	c #3D352F",
"H$	c #483F37",
"I$	c #564A42",
"J$	c #51473F",
"K$	c #4F463D",
"L$	c #0A0906",
"M$	c #221E19",
"N$	c #51463D",
"O$	c #4C4139",
"P$	c #4E433B",
"Q$	c #241F1C",
"R$	c #2C2521",
"S$	c #211C18",
"T$	c #201C17",
"U$	c #1E1915",
"V$	c #1E1916",
"W$	c #312B25",
"X$	c #110E0C",
"Y$	c #0B0908",
"Z$	c #0F0C0A",
"`$	c #100E0C",
" %	c #090807",
".%	c #000001",
"+%	c #000101",
"@%	c #100D0B",
"#%	c #191613",
"$%	c #1D1814",
"%%	c #181512",
"&%	c #685A51",
"*%	c #796A5E",
"=%	c #544840",
"-%	c #4C413A",
";%	c #070505",
">%	c #0E0C0A",
",%	c #060504",
"'%	c #0A0807",
")%	c #0F0C09",
"!%	c #0F0D0B",
"~%	c #38302B",
"{%	c #4E433C",
"]%	c #473D36",
"^%	c #443C35",
"/%	c #15110F",
"(%	c #62564B",
"_%	c #5A4F46",
":%	c #5B4F45",
"<%	c #5D5249",
"[%	c #574D44",
"}%	c #554941",
"|%	c #544A40",
"1%	c #63574D",
"2%	c #38312B",
"3%	c #5A4D44",
"4%	c #574C43",
"5%	c #988575",
"6%	c #020202",
"7%	c #060404",
"8%	c #584D43",
"9%	c #605449",
"0%	c #62564C",
"a%	c #554B42",
"b%	c #594C44",
"c%	c #62554A",
"d%	c #5C4F47",
"e%	c #948171",
"f%	c #706256",
"g%	c #665A4F",
"h%	c #2C2520",
"i%	c #584C44",
"j%	c #78695D",
"k%	c #070504",
"l%	c #534940",
"m%	c #5D5046",
"n%	c #51473E",
"o%	c #2E2722",
"p%	c #675B50",
"q%	c #64584D",
"r%	c #584B43",
"s%	c #373029",
"t%	c #67594E",
"u%	c #38312A",
"v%	c #070605",
"w%	c #352F29",
"x%	c #6B5D54",
"y%	c #6A5D53",
"z%	c #9C8778",
"A%	c #2E2622",
"B%	c #473E36",
"C%	c #958274",
"D%	c #8C7B6C",
"E%	c #362F2A",
"  . + @ # . $ % # & * = - ; > ; , ' ) ! ~ { ] ^ / ( / _ : < [ } | : 1 2 } 3 4 5 6 7 ( 8 _ 9 0 9 a b c d e f } g h 7 i j j ( k l ",
"m m m m m n o p q r s t u v w x y z A B C | B D E n F G H I J J K L M N O { P Q R S M T K U V W X Y Z ` y  ...+.@.#.' $.%.&.*.=.",
"9 -.3 < ;.>.,.'.).!.~.{.).].^./.,.~.(._.:.<.[.}.|.1.2.3.( 4.5.6.o 7.8.9.0.+ a.b.  c.$ d.-.e.f.g.h.i.j.k.l.m.n.o.m.p.q.r.s.t.u.v.",
"w.5 x.y.z.A.B.C.D.E.F.G.H.I.J.K.F.B.C.A.K.L.J.M.N.O.P.u.Q.O.R.S.T.U.V.t.R.W./.W.X.Y.|.Z.`.Y. +.+j.++@+#+`.$+%+&+ +W.*+*+=+O.-+;+",
">+,+2.W._.A.'+D.C.B.)+!+~+A.{+)+B.]+'+C.:.G.I.^+~+;+/+Q.(+&+>.` #..+X.W.R.W.&+ + +Z.++Z.Z._+^.:+<+[+}+|+1+1+Z.:+Z.%+.+2+:+3+4+`.",
"5+i.|.K.A.C.'+]+K.6+)+_.A.B.E.]+]+'+'+C.)+_.:.I.7+/+P./+ +8+s.9+0+/.%+*+`.&+a+b+Y.#+Z.$+`.j.|.c+j.1+|+d+e+|+++f+g+f+`.Y.Z.++[+j.",
"C ;.!+h+K.F.'+B.C.)+A.:.G.i+j+A.F.C.h+k+A._.I.I.L.l+m+P.O.O.q.n+o+/.X.Y..+ +u.p+q+r+.+_+`._+:+3+#+s+t+}+[+u+f+q+j.f+_+^.++s+|+g+",
"5 5 v+B.C.B.D.'+'+'+C.C.A.G.w+K.G.)+x+D.B.)+A.G.L.:.O. +&+=+:+y+z+`.`..+&+Q./+A+m.:+`.:+B+j._+$+j.c+j.f+c+1+_+|+C+c+f+++f+D+[+E+",
";.u+[.G.{+B.F+]+F+G+H+B.A.B.C._.)+A.k+C.C.C.i+_.{.^+P.J.P.I+V.J+K+f+:+*+*+b+X..+.+Z.D+t+t+1+L+`.f+q+$+_+j.Z.|.t+M+t+D+D+++++C+[+",
"N+}+).M.~+A.H+O+'+]+P+]+j+F+Q+:.)+)+C.K.A.B.F.C.A.R+A.J.P.(+a+  0.f+*+*+%+W.S+.+T+f+D+|+[+C+<+`.|.j.:+X.:+j.C+U+j.s+V+u+u+V+V+1+",
"=+A.F+F._.M.]+W+H+H+F+H+F+X+]+A.)+)+D.Y+]+P+]+D.K.I.Z+P.J.J.`+ @A 2+.@&+%++@S+j.D+}+++D+t+c+f+@@f+++Z.`.q+t+E+|+#@e+e+$@%@&@V+1+",
"'+*@=@F+'+C.*@W+-@-@H+]+F+D.C.C.)+)+B.'+]+]+Q+F+i+A.J.;@<.I.V.+ @ >@W.W.Y.`.`._+j.j.D+D+s+t+C+|+D+++++,@'@E+u+e+)@f.!@f.%@&@e+~@",
"{@]@W+^@O+P+*@O+W+/@F+F.B.K.B.C.L.:.D.]+'+'+'+(@A.E.I.R+H.(+a+a _@p+a+*+:+$+g+A+4+D+E+E+C+e+e+e+[+:@C+|+|+!@t+[+C+e+V+&@$@<@%@[@",
"A.}@G+|@*@'+F+W+-@*@'+E.A._.:.G.:.G.B.Q+]+H+]+Y+Y+H+_.m+R+&+*+. 1@ +b+O.Y._+`.S+Z.C+e+t+[+'@|+2@3@4@!@4@|+C+j.t+e+!@i.5@4@$@[@2 ",
"{+*@E.C.]+K.H+H+F.6@A.C.G.~+{+_._.i+Y+A.Q+F+C.7@H+'+:.8@9@Q.=+K+0@ +b+X.`.f+g+j.[+u+e+}+:@!@u+a@%@5@x.5@e+N+++b@u+f.e+5@[@x.y.c@",
"d@H+]+C.{@]+i+Q+Q+Y+P+C.)+C.e@C.B.P+H+D.A.]+'+-@H+F.<.;@I.P.>@f@c W.&+`.Y.|.}+u+g@e+t+E+|+!@4@f.h@5@f.i@i.t+}+1+u+#@e+f.!@5@;.j@",
"B.K.:.^+_.F+D.B.C.Q+k+A.)+C.]+F+-@=@W+P+]+]+'+^@P+B.k@l@m@$+c@n@0+a+%+o@:+g+t+#@4@&@p@t+}+E+e+5@q@V+4@e+f.u+t+t+}+E+s+[+e+r@2.3.",
"G.G.A.s@C.'+'+'+B.B.B.:.G.B.]+W+t@t@/@X+'+]+=@*@H+F.A.u@/.v@w@{ x@V.*+*+f+}+|+:@j.|+}+t+u+[+)@|+3@|+V+e+E+:@t+j.y@j.j.|+q@z@r@A@",
")+)+j+B.P+F+B.C.A.G.C.G.F.'+W+]@B@C@^@P+Q+^@}@O+B.A.~+n.e+D@2@ .E@>.F@ +X.f+E+)@[+g+[+b@[+u+}+}+j.'@g+|+}+1+D+'@g+f+t+4@5@&@c@r@",
"Q+k+k+A.j+B.{+A.h+:.G.C.]+H+G@*@H@]@(@A.X+G+(@'+D.A.I@J@c@2.K@L@M@N@/+-+/+S+Y.}+|.j.|.1+t+N+<+}+@@D+++b@j.}+++j.D+D+C+i.&@r@O@2.",
"P@P@Q@K.B.i+A.A.{+A.E.]+H+F+*@F+H+W+H+I+^+I.R@k@*@_.r@S@}+d.T@U@` V.(+(+ +X.:+++$+:+Y.j.f+f+j.j.f+f+t+V@^.@+g+_+@@|+5@%@%@A@D@O@",
"W@x X@Y@Z@`@!+v.t. #.#,.].+#@#_.L._.$+##7.$#%#| 2@&#& A _@*#=#-#T.w@;#|.s+S@v@g f >#e.>#h h 5 1 T@O@[ } ,#2 3.'#c@,+T@)#7 % !#l ",
"~#~#~#{#]#$.z L@^#/#(#=._#X y+y U@` :#<#[#}#|#1#2#3#4#5#6#|#7#{ 8#9#n+X 0#a#W 1#t u b#c#6.w f@X <#d#c#9#e#f#g#h#i#_#j#k#l#<#m#<#",
"n#E@-#o#h u+N+p#q#k.r#z.s#t#u#I@|.Z@v#|+w#1+4+r.q+x#x#j.j.q+q+y#D+z#i@A#g B#C#r@D#2.3.##E#F#'#r@G#@.d.c@J@2 y.e.H#I#1 J#K#L#&#l ",
"/+s.M#{.)+]+W+(@C@]@*@N#O#$ - P#P+'+H+Q+B.K._.:.:.I.~+<.:.7+P@ +X.`.:+Y.`.Q#R#.+_+D+|+C+f.!@[+|.C#S#T#U#`.++j.t+!@5@x.y.c@O@D@##",
"7+P._.B.B.Q+F+=@V#t@W#'+e@X#c I.K.]+Y#A.L.A.~+:.<.7+)+G.~+M.W.*+Y.t+_+ +a+*+n.:+Y.<+#@4@f.V+++f+5 Z#`#m.m.}+#@%@'#4 2.>#3. $O@2.",
"<._._.D.]+'+/@-@}@]@*@E.C.4..$J.L.D.B.A.:.L.J.I.:.L.:.s@~+9@R.^.++t+|.^.>@R.=+q+b@|+4@$@2@[+b@|.< +$g.8+`.'@V+&@3.##f @$#$@$3.2 ",
"K.K._.C.'+]+O+^@=@]@=@F+G.a $$I.A.E.G.)+_.7+I.I.P.I.(+/+u.;+W.:+f+++|+b@f+:+*+b@;.%@!@!@5@!@e+D+@$x h.Y.2+j.u+x.#$D@##O@##@$##2.",
"G.)+I.:.)+]+H+(@%$}@W+e@&$0.*$L.B.Q+_.!+7+~+G.P#[.u..+`.m. +R.++D+D+3@:@D+}+|.|+z@x.e+5@r@!@|+p@h =$q@Y.Y.D+#@e+g@r@r@c@##O@r@#$",
"_.G.I.L.E.'+]+*@W+=@Y+C.J.$ -$P#K.L.P.I.!+M.J.^+-+$+[+t+[+@@X.`.j.'@U+u+&@e+[+t+M+!@%@[@e+$@:@E+: P ;$++}+u+4@!@u+4@&@r@>#r@4 O@",
")+G.C.C.Q+H+F+D.Y+H+E.A.:.>$-#s#:.L.G.A._.<.{. +Y.E+u+|+u+|+Y.c+u+t+[+s+E+u+e+e+%@x.e+f.|+u+E+|+,$a###3@f.g@q@|+e+5@x.O@I###r@3.",
"_.G.E.'+6@F+6@P+'+'+B.B.L.'$)$M#s@A.)+C.:.P.[.%+[+!@C+f.2@|+V@E+|+<+!$t+}+e+u+|+E+|+q@E+E+C+t+|+~$s O@[@x.%@5@u+q@{$[@2.5 >##$2.",
"J.)+]+F+D.F+(@*@H+]+k@A.L.@ _#a+{.G.A.{+L.-+X.A+g+5@e+!@i.4@e+[+u+,@D+|.D+4@x.e+b@|+p@u+[+|+|+f.>${ ]${$2.{${$[@;.{$5@#$4 ##j h ",
"I.A.h+j+Q+O+=@*@W+F+'+C._.a.^$P@~+<.~+I.~+Z+=+Y.j.q@5@!@&@5@i.g+1+|+u+/$}+e+($C+i.f.C+B+@+[+[+_$:$i#3 5@x.{$c@c@x.2@&@c@2.@$< @$",
"<$A.G.A.'+O+O+(@/@W+H+C.<$*$9+P@9@P.I+/+[$O.X.^.!$[+c+4@x.'#x.:@s+'@g+++++j.C+s+t+!@D+B+q+'@}+C+}$|${$u+|+5@;.g@x.!@q@2.A@##4 2.",
"G.A.B.F.'+'+W+O+*@6@Q+G.^+1$..).(+(+M.(+&+%+S+Z.$+s+t+2$%@y.5@#@D+<+E+1+}+|+E+4@3@t+`.j.|+B+j.}+3$) 4$I@D+x.5@[@{$2${$5$O@@$[@;.",
"Q+D.E.'+G+P+=@=@F+D.A.I.!+6$9+s@7+M.(+=+p+;+R#Z.Y.'@|+f.V+q@$@|+}+|.t+e+|+C+C+C+7$<+_+g+j.8$Z.$+/ +$x.1+1+V+i.i@[@A@O@1 9$@${$x.",
"=@(@F+H+W+G+7@0$A.C.)+<.^+a$^ {.7+b$P.p+O.&+&+X.^.t+t+|+|+7$|+#@|+2@[+|+t+B+<+`.^.:+N+Y.j.Y.X.Y.c$+$!@1+|+%@x.g@[@C#O@O@>#A@{$c@",
"*@G+O+G+W+=@*@Y+Q+P+A.~+P.d$9 _.N.P.{.Z+X.%+9@(+f+C+N+C+u+u+V+E+E+E+|.}+$@e+B+`.:+A+N+f+j.:+q+|.Y@Z#4@E+|+:@u+|+x.3.2.2.c@##O@##",
"]@t@e$^@]@F+E.D.P+F+B.G.:.f$d :.~+Z+I.!+(+g$Z+ +R.B+t+i.e+!@}+1.j.1+q+t+:@:@t+}+4+O.q+j.j.f+}+t+: l#F#t+|+V+!@!@[@2.##r@##)#)#J#",
"h$h$h$i$j$G+F+H+W+F+F.G.)+k$l$:.:.:.P.;@O.(+P.O. +`.}+i.&@q@'@<+|._+Z.j.|.}+V@Q#*+M#Z.g+t+|.N+m$n$o$p$5@$@&@J@c@A@{$##[ 8 ( q$I#",
"r$t@s$]@]@t$u$}@G+=@6@A.v$*$& <.I.I.P@&+`.[$Z+&+.+%+c+[+:@E+_+:+j._+!$@+*+8+w$ +p+&+Y.t+7$V+j@x$}#~#x $ {$2.2.1 O@[@O@y$L#  5+/ ",
"x#z$W+H@/@B@B@W+A$%$P+{+).c B$>./+>@C$@+f+$+q+++D$D+s+3@!@h.s+E+B+D+1+|.m..+!$v@c@g@r@< &#E$W@R ~#~#F$s G$a.H$0 : < y$I$J$Y@  K$",
"L$M$4.N$( !#O$P$B $ : l$1$Q$, W@y R$S$|$S#_#9#Z#Y T$Y S$T.U$/# .x V$)$*$X#W$X$Y$Z$R `$ %G .%~#~#~#~#~#~#+%.%.%{#@%R #%$%s %%{ X ",
"d.&%*%V.x.P$  + =%P$n#'$9 : ( 0 k$f$-%9 J+4.n$ @n#t ;%o$b >%,%~#~#'%~ )%~ X$c#c#|#)%Z$R Z$T '%T L F ,%!%<#^#:#-#y ~%n#G$-$9+-#:#",
"*@t@t@G+=@D.*@6@e@E.L.L.A.A.K.K._.I.d@O.O.=+a+9@=+< {%b.]%^%|$~#/%l$(%J@q@4@2@m$C#_%:%#$<%[%}%&#_ E$f${%1 c@A@O@J# $##r@4 ;$r@A@",
"i$t$t@G+^@P+F+]+C.C.)+I.A.G.)+G.G.A._.Z+[$t.`+(+W.[@: d.|%$ U@~#y+i@j.j.++_+|.7$f.!@;.[@1%[@{$r@3.J#O@c@#$O@5 f I#c.)#2.'#2.;.r@",
"B@V#]@7@W+D.Q+B.k+k+:.J.L.6+C.A.E.'+)+J.H.R+-+X.x#[+'#( Y@_ 2%~#T ;$V+V+}+!@h.[+:@|+q@c@4 O@A@@$3%h ##[ 5 : < 9$J#&#4%3%4 j@r@{$",
"O+5%]@=@X+F+F+]+J.G.B.C.B.B.h+C.B.P+K.~+9@~+9@p+}+1+j.5@< &#0.6%7%##|+4@%@e+u+|+D+:@u+%@3.D@J#@$I#h ##O@@$J#< J#< 4%8%9%0%f y.{$",
"F+^@*@H+'+0$W+F+A.C.*@B.C.i+~+<.C.B.L.~+I.~+!+O.%+`. +*+!$e & 6%o F#)@&@f.|+2@[+t+e+u+5@y.##h 8%a%b%< D@J#I#( < @$9$O@c@c%d%2 c@",
"'+e%'+F+A.B.]+]+B.Q+*@H+*@Q+G.)+G.G.C.)+I.[.^+.@.+*+/+(+Q.$+5$I ,%I$|.f%4@!@g%h.e+|+V+&@;.2.A@@$| J#: D@O@O@J#< < O@##>#A@##O@J#",
"F.E.P+C.C.]+*@'+A.P+W+F+'+C.~+_.K._.G.:.L.J.M.-+O.O.-+P@9@a+*+h%n l Y.f+u+2$x.!@&@e+t+i@;.{$2 ##4%i%J#O@O@I#4%@$< h O@@$< < O@ $",
"C.C.A.A.B.P+-@F.Q+H+'+]+Q+K.!+s@<.<.<.b$C.L.^+^+s@J.<.I._.-+j%c k%j@Y.g+t+e+!@%@[@&@,#y.x.r@2.< : l%J#4% $J#)#h O@4%< D@[ J#O@O@",
"D.H+E.D.]+P+*@*@'+H+F+i+C._.:.l@_.J.~+~+:.)+_.:.B.A.A.{+A.^+*+S.7%m%Z.b@b@|+2@e+{$r@[@%@c@##3%h c.c.&#n%7.4%O@[ A@< < ###$j@O@#$",
"Q+E.P+e@E.P+H+F+(@P+'+]+_.~+I.s@J.I.:._.J.:.I.[.L.:.A.A.G.[.n.o%,%< f+t+!@4@p%%@C#O@r@x.;.##r@< a%c.: 7.y$J##$A@@$ $J#A@2.q%y.3.",
"C.C.Q+D.C.D.B.'+H+D.Q+k+C.A.J.P.L.:.A.K.I.J.:.^+J.l+J.A.G.(+.+:#I w@D+t+g@c@r@q%2.C#2 5@;.A@r@@$r%y$J#D@< < O@###$C#D#c@A@r@r@c@",
"]+C.Q+'+'+H+Q+Q+D.C.6+A.i+i+C.:.<.A.A.J.<$P#_.~+~+7+~+7+P.&+m.s%,%)#}+i.t%c@[@%@y.O@3.[@%@{$##O@@$J#[ [ i%I#D@###$C#2.y.'#2.c@;.",
"F+P+]+H+'+'+D.Q+F.j+A.L.)+G.:.L.G.G.G.J.M.M.~+R+Z+~+I+(+.+Q#@@u%v%1 |+|+5@;.e+i.($#$c@c@5@4@#$D#2.O@r@@$< i%f ##A@O@r@r@[@A@2.c@",
"F+j$}@H+P+]+'+]+Q+C.6+<.G.:.x+C.B.G.K._.I.~+P.H.u.[. +&+X.$+1+w%H l &@e+4@e+e+u+f.c@'#{$h@$@%@t%y.5 r@>#O@< g g  $)#O@2.c@r@r@c@",
"=@B@5%]@*@'+H+P+Q+E.C.L.G.~+A.)+C.)+:._.M.Z+P@u.9@~+-+ +*+D+x%1$6%9 q%c@f.[+e+!@!@&@%@e+!@;.c@2 2.##J#1 O@m%[ c@2.< O@3.C#####O@",
"(@(@F+^@]@]@G@H@H+'+C.L.I.P._.)+G.j+G.:.J.&$J.~+M.^+b$ +f+t+y%o%L K#%@D#4@|+3@;.x.t+|+e+4@5@[@x.3.O@D@##c@r@[@q@i@r@c@2.#$g @$1 ",
"]+W+=@G+z%t@t@]@=@F+C.:.~+!+s@_.k@Q+A.Q+A.F.K.s@P.~+[.&+:+}+)@A%k%d.|+!@!@!@5@!@f.[+4@5@!@q@J@J@y.r@O@2.{$&@4@f.!@!@x.[@3.A@#$3.",
"*@G+=@F+=@}@]@i$j$*@P+A.K.6+~+!+A.E.j+j+C.B.:.!+P@9@ +%+V@D+K@` K B%;.x.!@$@!@|+[+|+f.!@i.!@4@5@5@5@;.2.x.C+q@5@x.&@%@j@;.#$##2.",
"}@}@=@W+(@^@t@C%=@^@(@'+D%{+:.K.C.Q+'+E.Q+]+C.G.J.s@[.Q.*+j.4 E%> |$4%)#]%0.l c@C+)@)@|+E+[+u+e+#@i.f.$@!@u+e+e+5@&@!@&@!@5@;.%@"};
