/* XPM */
static char * wall_no_xpm[] = {
"64 64 131 2",
"  	c #929891",
". 	c #8F958E",
"+ 	c #8D938C",
"@ 	c #919790",
"# 	c #7D847B",
"$ 	c #434742",
"% 	c #222421",
"& 	c #050605",
"* 	c #212320",
"= 	c #9BA19A",
"- 	c #B4B8B3",
"; 	c #A9ADA8",
"> 	c #9FA49F",
", 	c #B5B9B4",
"' 	c #D3D5D2",
") 	c #BEC1BE",
"! 	c #B2B6B1",
"~ 	c #BCC0BB",
"{ 	c #D6D8D5",
"] 	c #DADCD9",
"^ 	c #C0C3C0",
"/ 	c #5E645D",
"( 	c #0C0D0C",
"_ 	c #515550",
": 	c #717770",
"< 	c #828881",
"[ 	c #888E87",
"} 	c #777D76",
"| 	c #ADB1AC",
"1 	c #CBCECB",
"2 	c #D5D7D4",
"3 	c #D0D3D0",
"4 	c #BABEB9",
"5 	c #A1A6A1",
"6 	c #7E847D",
"7 	c #313431",
"8 	c #1B1C1B",
"9 	c #545853",
"0 	c #7A8079",
"a 	c #9EA39E",
"b 	c #878D86",
"c 	c #797F78",
"d 	c #686E67",
"e 	c #696F68",
"f 	c #656B64",
"g 	c #565B56",
"h 	c #3E423D",
"i 	c #4C504B",
"j 	c #393C39",
"k 	c #3C3F3C",
"l 	c #030403",
"m 	c #292B28",
"n 	c #B0B4AF",
"o 	c #CED1CE",
"p 	c #A5AAA5",
"q 	c #999F98",
"r 	c #949A93",
"s 	c #9CA29B",
"t 	c #959B94",
"u 	c #50544F",
"v 	c #282A27",
"w 	c #787E77",
"x 	c #989E97",
"y 	c #898F88",
"z 	c #858B84",
"A 	c #464A45",
"B 	c #636962",
"C 	c #6C726B",
"D 	c #5C615C",
"E 	c #20221F",
"F 	c #B8BCB7",
"G 	c #4F534E",
"H 	c #80867F",
"I 	c #C2C5C2",
"J 	c #90968F",
"K 	c #A3A8A3",
"L 	c #6F756E",
"M 	c #8B918A",
"N 	c #818780",
"O 	c #2A2C29",
"P 	c #C5C8C5",
"Q 	c #303330",
"R 	c #6D736C",
"S 	c #A8ACA7",
"T 	c #979D96",
"U 	c #151615",
"V 	c #ACB0AB",
"W 	c #737972",
"X 	c #848A83",
"Y 	c #171817",
"Z 	c #070807",
"` 	c #484C47",
" .	c #8C928B",
"..	c #757B74",
"+.	c #000100",
"@.	c #343734",
"#.	c #585D58",
"$.	c #2D302D",
"%.	c #6B716A",
"&.	c #70766F",
"*.	c #747A73",
"=.	c #2C2F2C",
"-.	c #121312",
";.	c #373A37",
">.	c #080908",
",.	c #131413",
"'.	c #40443F",
").	c #4B4F4A",
"!.	c #7C837A",
"~.	c #1E1F1E",
"{.	c #252724",
"].	c #444843",
"^.	c #181918",
"/.	c #0F100F",
"(.	c #0B0C0B",
"_.	c #676D66",
":.	c #60665F",
"<.	c #5B605B",
"[.	c #262825",
"}.	c #DDDFDC",
"|.	c #383B38",
"1.	c #DCDEDB",
"2.	c #242623",
"3.	c #DFE0DF",
"4.	c #D4D6D3",
"5.	c #616760",
"6.	c #C4C7C4",
"7.	c #C8CBC8",
"8.	c #CCCFCC",
"9.	c #646A63",
"0.	c #1F211E",
"  . + @ # $ % & * = - - ; > , ' ' ) ! - , ~ { ] ' ^ ; / ( _ : < [ # } . | 1 2 3 4 1 1 4 5 6 7 8 9 0 a   b < c d e } f g h i _ j ",
"  5 > 5 + e k l m a - , n = > , 4 - 4 4 , 4 o ^ , , p g ( } q   r s t ; , ^ ' { { { { 3 ) [ u v c w . x . } w 0 # y . z f A g B ",
"C y 5 = r [ D & E = F 4 ! a a ; ; p ^ 1 , ! 4 , p | p G ( 0   b H   = n , , 4 ) 1 I ~ ~ , q # _ J b . ; K } L # < M s t M # : N ",
"O j 6   t . u & O r P 1 ) ! ; a a q q ; a a ! P ! p q Q & L M y R + = n , , ! S , , , , - n a } . t p | ; N 0 N + r   @ T = b H ",
"h U O z q a g & $ t - , I ! p q ; ; q x   @ T V | p [ U & W a a y 5 a n , , - n | n - - ! - p # + x K = a w c X t p 5 + . T . < ",
"A Y Q [ a p f Z ` s p z .  .N [ p V p  .# 0 W b +  ...& +.} r t t 5 q p | | ; K r t p p q ; p b .   b c y W }  .r t x @ + . y H ",
"G Q i + ; a A l % 6 [ L G @.@.B 0 [ [ #.Q h G B G @.$.+.+.` %.&.} W L *.6 6 W #.i u L &.%.y  .} y . 6 &.z H [     b . T a b W ..",
"G 7 =.# x w -.+.+.% ;.U >.>.>.( ,.m ;.( +.+.U -.>.+.+.+.+.+.+.+.+.+.+.+.+.+.+.+.+.+.+.+.-.'./ ).%.0 &.D W } !.[ [ H 6 y q X B g ",
"+.+.+.U j ~.+.+.+.+.+.+.+.+.+.+.+.+.+.+.+.+.+.+.+.+.+.+.+.+.+.+.+.+.+.+.+.+.+.+.+.+.+.+.+.+.+.+.+.-.,.~.{.{.O ].G #.].7 g } ].Y ",
"+.+.+.+.+.+.>.^.>.+.+.+.+.+.+./.>.+.& -./.>.(.=.;.).A {.~.A A =.m A =.{.Z v E +.+.+.+.+.+.+.+.+.+.+.+.+.+.+.+.+.+.+.+.+.+.^.>.+.",
"-.-.^.{.8 >.% / @.=.A A $.~.% h 9 * 7 !._.7 Y D x ; s B m :.z b 0 6 0 = #.:.: 8 ^.U >.+.^.,.{.>.+.+.Z >.+.+.+.+.+.+.+.+.+.+.+.+.",
"+ @ a ; ,   A R 6 . p V ; p n a .  .! F w % Y W ; 1 ! y / # r p - 5 x ! a b } $.$.% U >.( ~.j =.% ~.G <.i [./.& Z +.+.+.+.& ( +.",
"1 1 3 ' ] ^ %.s ! , 3 { { 1 , 5 x t V n [ ,.-._ = 1 , + C z . . T M x , p < h -.>.>.(.>.+.-.h d c # q p a X } #.;.+.+.+.>.,.~.>.",
"! , , , 1 ) b I ' I ' }.] ) | ! p b M a ; A ,.h r P ; c A } b . [ W 6 W B G % >.+.+.(.Y U h b K p x 5 ! ! V ; = B +.>.j i G i [.",
"> > = r x r < 1 { ) I ] { I o 3 , 5 @   . ;.U B t ; y A 7 f  .t N g 9 % % U ( /.* =.;.h B T ; | | 5 p | ! ! V t 9 +.-.} H # } i ",
"4 , , ! | @ # 1 ] I ) { { I ' 3 ! t < N N =.>.&.  q [ g A !.T 5 r M w |.[.U -.=.w  .q   = ; 5 a ; ; 5 = 5 | 5   B l U 6  .y # :.",
"] { { { 1   &.P }.' I ' ' , ! ! = b C C # $ ( 0 t p M L < t a T t p @ c D A m :.a | ! , 1 ) | a > p p = ; ! ; t C & % 0 b b 6 L ",
"}.{ ' ' I b [ P 1.' , , , > M t t + < b r w % }  .; s c b q [ 6 b 5 T M 6 W 2.} ; , - , 3 ' F | n ) p = n , n x B & $.[ @ . M X ",
"] ) ; >  .A y , 1 , T t p s # . x t q V ^ a $.G 6 5 t c #.6 c e W @   X !.` /.W ; , n p , 1 F V p , ! 5 V - - p <.Z ` x x   b  .",
"' 4 !   A -.# = ; . B D 6 X X r K 5 V , ) n h =._ N H 0 %.[ T X } y [ # ..$.,.:.p - ; a = ! ! S p , 1 , p ! , ; L >.$  .t   + t ",
"^ F ) t ;.& B M 6 #.@.@.g !.+ x a ! ! ; a < m % 8 |.: X X b   s  .# :.D B {.-._ p n a 5   q ! P P ) 3 1 4 , , ; *.& =.c M t K ; ",
"! | ; 5 _.>.u B ;.h A h $ ).6 T t - 5 W Q -.& =.E 7 t ; 5 + c [ 6 A [.{.7 /.+.7 a V r q q M a n , , ~ I o F n p %.Z Q #.L b   K ",
"5 5 K . _ & % ~.( ^.O ~.U l U |.Q i j & +.+.+.~.U 2.  p t b _ ` =.& & +.& l +.% N = q [ } A h L  .p ! ) ~ a z 0 7 +.Y |.h _ B : ",
"= x [ _.g +.+.+.+.+.+.+.+.+.+.+.+.+.+.+.+.+.+.+.( ^.A B #.i U ( -.& +.+.+.+.+.Z % 7 $ m ( +.+.l % _ } D ;.Y & +.+.+.+.& l ^.7 j ",
"[.m % % {.+.+.+.+.+.+.+.+.+.+.+.+.+.+.+.+.+.+.+.+.+.+.+.(.>.l l +.+.+.+.+.+.+.+.+.+.+.+.+.+.+.+.+.+.+.+.+.+.+.+.+.+.+.+.+.+.+.+.",
"+.+.+.+.+.+.+.& & & l +.+.+.+.+.+.+.(.& -.>.>.l >.& ( Z * :.#._.h A A [.~.=.7 =.~.( & -.-.+.+.+.Z >.& & l & Z -.U U +.+.+.+.+.& ",
"^.& +.l % O U U ^.~.[.^.l +.+.+.>.[._.#.A {.O A R *.M X = , .   a p p X ).A G g L # < = x L _ j '.A 6   N 7 Y ~.j D j ~.^.v % $.",
"r + + i =.A ).6 s a + H W g ;.7 i L # } b 5 !  .d <     5 , %.  n , P 4 a p F ) P 1 3 2 2 1 I 5 !.).  ) , N g 8 7 } L _ {.;.G j ",
"' ' P [ $.G D + 1 ' 4 , I ) ) ; x M [ . ; 1 1 @ ;.g 6 [ = a h t ! ! a M [ ; , 4 1 { }.}.] }.{ ! b h A X r 6 f $.B T ; K 6 X a ; ",
"3.{ ,  .` _ L = ' }.{ 3 I 4 4.{ 1 ! p a V 4 , t _ g #   ; x ;.. ; ;  .d _ = 5 x   | 1 ' P ] ' p N ).$.).*._ #.[ V 1 2 P p ; , 1 ",
"] o p H G p ; , 2 ] { P 1 1 2 }.] I ! = 5 ! ! s g G 6 t p M A   t x = 0 j 6 x [ g B   ; - 4.3 p 6 G [.% g v h 5 1 1.] ^ ! - , ^ ",
"4 , p N j a - 4 1 I 1 4 ! p , ' ] o , 5 V , , @ [.j y t r &.O 6 # X [ h -.Y h k -.-.A #   P - M d u Q m 9 h $ K ^ ' o 4 , - ! , ",
"T t M #.A b V , ! ; n ; t b + ! 1 ^ , n | , 1 K [.i s q  .i ~.W N } e ;.>.+.+.& +.+.Y  .T ! > b } L 9 7 ;.j $ s n ! S ! - V a > ",
"X 6 f j h b p p  .c b y b H N   - 4 , n a p 1 4 7 g 5 q b O U %.<.7 {.Y & +.+.+.& & >.t ! P ! r : #.A <.D 2.].y q a a V n 5 = a ",
"W H z %.#.t x X G #.6 + + X X r - 1 4 n a = 4 ~ $ #.a x 6 -.l h ).Q -.+.+.+.+.+.$.j ,.. - ) 4 V   X b = M ;.@.C r ; p 5 n n V p ",
"A %.# / j N + [ H X M T x     a , 1 4 - V 5 , 4 7 A M . f +.+.k :.d $.>.& -.( & %.b =.G a P 1 , ; a 5 5 = / :.@ a ; = q | ! s / ",
"E ~.U Y -.|.H = 5 p ; | ; = q p - F , , - ! ) - [.[.%.# i +.& G } A ,.Z >./.-.U X } -.& ;.a V p t # C G 6 B + ) V a M t ; a :.( ",
"& +.+.+.+.h ..b + = n - ! ; = 5 ! 4 4 , - - ^ q U (.$.j ^.+.+.^.j Y >.>./.-.( ( =.-.+.+.& A g B < L 7 U $ G b ! y L 6 y M L _ ;.",
"+.+.+.+.>.A i !.y . 5 p 5 = . a | ) ~ p s  .< G l +.+.& +.+.+.+.-.-.( l +.& >.l +.+.+.+.+.+.>.~.A / @.& * m 9 # h A f <.B B &.5.",
"( >.+.+.( * ,.<.: D i A ;.;.7 _ *.e _ ;.=.^.-.7 /.>.+.& +.+.+.+.+.+.+.+.+.+.+.+.+.+.+.+.+.+.+.+.U ^.& +.+.( ;.G {.% $.Q %.6 c G ",
": *.g G O ;.$.G A '.,.>.U % Y E ;.7 /.( -.8 ;.&.j {.7 G W *.% & +.+.+.+.+.+.+.+.+.+.+.+.{.(.+.+.& Z E Y ~.>.>.U >.& +.>.[.Q '.U ",
"t   s [ h g 0 [ N 6 # / _ L / e < J :.% ~.$ J = a 5 , , 1 o ~ q :.$ * >./.-.Q ~.>.>.-.E h i ( & ^.g p q  .-.+.+.+.+.+.Z % Y ( ^.",
"= p ; @ %.X @ p p = a X 6 = a t a p [ ;.;. .| ! ! | , 1 2 ] ] ' P V b 7 Q B = X $ D b [   ; a s a ; 4 1 6.N G 7 % % < M y N < a ",
"D M @ + b + M q ; p r 6 C + r  .X b z G D - , , ! T + a , I ' 7.{ ' ! b X ~ 1 I ! P 3 1 F 1 3 1 F , , ^ 1 , ) - N O x ~ - P 3 2 ",
"~.A :.H M  .+     X !.L _ e %.u A G :.'.).; ~ I 1 ! .   | 4 ' 7.] }.' ! q 1 P P 2 }.3.] I I I I ) ~ ~ ~ 4 , ~ 4  .{.w = ; 4.3.3.",
">.8 9 # *.:.#  .b C A j [.{.% Y Y [.$.8 D ! ' ] }.' , | ! 4 ' ] }.3.}.1 p 1 { ] }.3.3.}.] ] ] ] ] ] ] ' I ~ I 1 x {.B x ! ' }.3.",
"-.O # < ).h B 6  .T 0 O Y ,.Y Q A h G v @ o }.3.3.1.o F , , ^ 4.}.3.3.3 = , { 3.3.3.3.3.3.3.3.3.3.3.3.1.4.{ ] 3 M ~.g ; , ~ ' }.",
"% Q } N # # < &.< T a . 6 B d T = X &.i ~ 1.3.3.3.] P ) 4 , , I ] 3.3.1 @ 5 ' 3.3.3.3.3.3.3.3.3.3.3.3.] 8.] 3.2 = ~.g F , p F { ",
"i h %.X x   + N < . > ) P ) ; p . d h ` 6.}.3.}.] }.] { o ^ 4 ) { 3.3.1 b a o ] }.3.3.3.3.3.3.3.3.3.3.}.] }.3.{ a ,._ ; n p p 1 ",
"9.i u %.6 z # 6 c 6 M q ; ; T b _.%.#.h ! 4.{ 3 1 ] }.2 1 ' ' P { ] }.o T ; 4 I 4.}.}.] ] ] }.3.}.] ] ] ] }.3.{ = ,.*.= a T  .5 ",
"=.E ~.E [.;.[.% [.j ` G <.:.L B ].A '.(.g p ; ; 1 { ] 1 4.{ { ] ] 1 2 3 p n 4 ) P ] 4.I ~ I ' 1.' I ~ ~ I 4.1.o M -.X p p x . b ",
"+.+.+.+.+.+.+.+.+.+.Z (.U ^.E 8 (.>.Z +.U %.L b p - 3 ' 1 , 4 ' 1.4.I P a | 1 { ] ' ^ , , - ! ~ ! | ; V ! F P ! ..& m y T t a r ",
"+.+.+.+.+.+.+.+.+.+.+.+.+.+.+.+.+.+.+.+.>.i A v ].B = 5 . } t , 1 1 , p C   - ' ] I ! V ; T u ;._ 6 0 b = @ M z k +.+.G X X + [ ",
"+.+.+.+.Z +.+.+.+.+.-.+.+.+.+.& Z +.+.+.& ~.$.8 -.-.[.O $ G L [  .[ b 9.0.u 6 p P ) T [ < Q & +.( ^.{.$.A $ u h {.+.+.-.j G _.D ",
"( ( ( ^.9 7 >.& >.j A m ( +.-.7 $ 7 ( & & & -.Y -.>.-.k 0 A j 7 ^.(.>.+.+.( ~.2._.c #.u $ 8 ^.% {.{.[.$.;.A 0 &.#.[.* 8 v $ ` m ",
"/ # H !.#.k O [.Y [.8 Y Y 8 ;.#.w # h Y Y 8 7 * ~.O ;.g _ O _./ $.[.& & ^.,.-.( ~.h u u _ _ W z [ 0 W [ < :.#  .X 6  .x a ! - p ",
"V P 1 , $ 8 L [ :.$ ;._ 6 .   [ # *.#.G =.Q # q t K ; p M B b . X b } b x !._ =.B = T y   p V 5 ; p t 5   # X + r a ; | ;   5 ) ",
") { 4.) ;.(   ) = R b p ~   6 &./ 9 9 B ).:.; P 1 2 { 2 P p p ! , 1 1 4 1 | [ h  .P P ! | F 1 , F |   t   b y y @ + @ t @ R 6   ",
"' 3 | = m >.t V y d M | P r _ j :._ A ` _ X , n ) { ] ] 3 > 5 1 { ] { P 1 | X @.# ) , | | , 1 I 1 - T   T r M .   [ L < + # #.g ",
"' 4 q 6 Y Z y T N #.f q ! a J G <.i 7 ;.g 6  .p ) o ) I ' , p 1 ' P ' o F T G ^.A   x @ T a - 4 1 , T  .K ; q x   < # X @ M g $.",
"1 ! x 6 8 +.G . M #.$ t p 5 p < j ).g L 6 %.~.b P ^ ; , { 1 p , 4 , ~ ) !   A -.m w @   @ + ; , , ; t X x ; | ; t # . t t   B U ",
"4 p r c ( +.$.t T *.$.C  .K x 6 $.B z  . .A (.y 3 1 , 4 ' 1 p n , 4 I 3 4 T G -.m N @ t t   ; ; a q . W + = n - ; = ; ; 5 K L & ",
"1 | x 6 & +.7 r p + #.` 6 x N / G L # X   ).-.t 1 ^ , ! , ! p n , 1 { ] 1 | X E k c b   p ; ;   . @ . 6 y + ; , - ! - - ! V # +.",
"1 p a   & +.} ; ; r b # 6 : :.#.B <.u f N D E X n F ! a q = p ; 5 ! ' ] I ! T 7 A z X b   q p r b b M L 6 M ; ! - , , , - ; C +."};
