/* XPM */
static char * wall_es_xpm[] = {
"64 64 248 2",
"  	c #A46B4C",
". 	c #A46A44",
"+ 	c #AC6B4C",
"@ 	c #AC724C",
"# 	c #BB7453",
"$ 	c #B37353",
"% 	c #876548",
"& 	c #A9947A",
"* 	c #DAD9D4",
"= 	c #B9B8B4",
"- 	c #A89787",
"; 	c #846453",
"> 	c #775848",
", 	c #886A58",
"' 	c #98846A",
") 	c #887767",
"! 	c #796657",
"~ 	c #69533B",
"{ 	c #695647",
"] 	c #7A634A",
"^ 	c #988777",
"/ 	c #C9C6B8",
"( 	c #D9D3BB",
"_ 	c #946344",
": 	c #9C6344",
"< 	c #9C6B4C",
"[ 	c #AC745B",
"} 	c #AC7354",
"| 	c #B3745B",
"1 	c #A46B53",
"2 	c #945C43",
"3 	c #945B3C",
"4 	c #B87A58",
"5 	c #B78668",
"6 	c #C6A68A",
"7 	c #C6AA97",
"8 	c #B9B6A7",
"9 	c #ECF2DC",
"0 	c #C7B8A8",
"a 	c #B8A48A",
"b 	c #E5B69F",
"c 	c #CF9A8A",
"d 	c #B79679",
"e 	c #A88569",
"f 	c #B78976",
"g 	c #987866",
"h 	c #A78976",
"i 	c #785B54",
"j 	c #A35C3C",
"k 	c #A8643B",
"l 	c #B4734C",
"m 	c #BB734C",
"n 	c #BB6C44",
"o 	c #B36443",
"p 	c #875739",
"q 	c #B7A797",
"r 	c #FFFFFE",
"s 	c #B9B39A",
"t 	c #77522C",
"u 	c #8B543C",
"v 	c #865747",
"w 	c #663A28",
"x 	c #763B27",
"y 	c #864B37",
"z 	c #A4735B",
"A 	c #4F332E",
"B 	c #7A7568",
"C 	c #8C5B44",
"D 	c #AC6B44",
"E 	c #AB6444",
"F 	c #B36C4B",
"G 	c #C57956",
"H 	c #C78767",
"I 	c #C78459",
"J 	c #684838",
"K 	c #3A2C27",
"L 	c #ABACA6",
"M 	c #AAA38B",
"N 	c #775539",
"O 	c #A87B59",
"P 	c #CE8E70",
"Q 	c #C69679",
"R 	c #D5B69A",
"S 	c #D2AC90",
"T 	c #B69A87",
"U 	c #A87A66",
"V 	c #C5764A",
"W 	c #B7703B",
"X 	c #C4ADA4",
"Y 	c #975637",
"Z 	c #AB644B",
"` 	c #976A48",
" .	c #977C74",
"..	c #E6DBD5",
"+.	c #D6BAA7",
"@.	c #B5673B",
"#.	c #CA7352",
"$.	c #D18754",
"%.	c #D59E74",
"&.	c #A47354",
"*.	c #9B5B3C",
"=.	c #A46443",
"-.	c #A77349",
";.	c #AC8359",
">.	c #C36B48",
",.	c #9B644B",
"'.	c #BB6C4C",
").	c #A75C47",
"!.	c #B66549",
"~.	c #97552C",
"{.	c #986B63",
"].	c #F7E9D8",
"^.	c #B45C38",
"/.	c #C45A3C",
"(.	c #7C533C",
"_.	c #D9D6C8",
":.	c #C7BBB5",
"<.	c #68442A",
"[.	c #AB6C53",
"}.	c #B97547",
"|.	c #A85A38",
"1.	c #D7C8B8",
"2.	c #A4644B",
"3.	c #AE5D4B",
"4.	c #B36C53",
"5.	c #6B3419",
"6.	c #E5CAB8",
"7.	c #86482A",
"8.	c #7B5443",
"9.	c #B8AAA5",
"0.	c #482717",
"a.	c #B46B44",
"b.	c #562A18",
"c.	c #CACAC5",
"d.	c #946453",
"e.	c #95685B",
"f.	c #A66D64",
"g.	c #9B6C5B",
"h.	c #9B6453",
"i.	c #A36C5B",
"j.	c #8B5C4B",
"k.	c #A89A94",
"l.	c #E7D8C8",
"m.	c #774A37",
"n.	c #E9E9E5",
"o.	c #481A0D",
"p.	c #583B35",
"q.	c #4A3628",
"r.	c #5A432B",
"s.	c #C9C3AB",
"t.	c #8A8577",
"u.	c #897A75",
"v.	c #B38C87",
"w.	c #AC7A72",
"x.	c #845B44",
"y.	c #77472A",
"z.	c #D4B9B2",
"A.	c #F6F9F5",
"B.	c #CCD4CA",
"C.	c #E8E6D8",
"D.	c #ECF4ED",
"E.	c #FAF7E9",
"F.	c #DAE4D4",
"G.	c #BAC3B3",
"H.	c #FEFDF4",
"I.	c #F0D7C9",
"J.	c #D7CBC5",
"K.	c #89735A",
"L.	c #381708",
"M.	c #8C6453",
"N.	c #583828",
"O.	c #58351B",
"P.	c #4C2B12",
"Q.	c #A0A39B",
"R.	c #E9E3CB",
"S.	c #A68C84",
"T.	c #694D53",
"U.	c #C8B49A",
"V.	c #B59C94",
"W.	c #9A9587",
"X.	c #392516",
"Y.	c #2F120A",
"Z.	c #170605",
"`.	c #946B53",
" +	c #A37463",
".+	c #5A4638",
"++	c #514938",
"@+	c #736D53",
"#+	c #928C74",
"$+	c #988A84",
"%+	c #987559",
"&+	c #684B45",
"*+	c #A9A597",
"=+	c #796A65",
"-+	c #9C6B54",
";+	c #88542C",
">+	c #99734B",
",+	c #8C734B",
"'+	c #8C634B",
")+	c #954C37",
"!+	c #863C25",
"~+	c #A7936C",
"{+	c #94634B",
"]+	c #B67A65",
"^+	c #B2936B",
"/+	c #713930",
"(+	c #A7542D",
"_+	c #876B64",
":+	c #663C35",
"<+	c #A76756",
"[+	c #A35D43",
"}+	c #E7D4BA",
"|+	c #886D72",
"1+	c #5A4945",
"2+	c #6B6457",
"3+	c #964B2B",
"4+	c #B1B195",
"5+	c #D7C3AB",
"6+	c #F6ECE5",
"7+	c #B76B55",
"8+	c #B8835A",
"9+	c #FBF4DB",
"0+	c #93918E",
"a+	c #985847",
"b+	c #935C4B",
"c+	c #8B633B",
"d+	c #492B25",
"e+	c #575249",
"f+	c #666061",
"g+	c #74726E",
"h+	c #F7E4CA",
"i+	c #ECCCAF",
"j+	c #6A5954",
"k+	c #774C44",
"l+	c #965D54",
"m+	c #9B5C43",
"n+	c #CDD1B8",
"o+	c #C47B64",
"p+	c #99623C",
"q+	c #874D44",
"r+	c #DDE6E4",
"s+	c #897C83",
"t+	c #875C54",
"u+	c #C59986",
"v+	c #583E43",
"w+	c #E3CCA4",
"x+	c #6F4821",
"y+	c #C46C3C",
"  . + @ @ # $ % & * = - ; > , ' ) ! ; % ~ { { ~ ~ ] ! ! ^ / ( ' _ : <   [ } | |   < 1 2 3   4 5 6 7 8 9 0 a b c d e f g ; g h i ",
"j k l 4 m n o p q r s t 3 : 3 u v u w x y t p p _ < z > A B ^ C D E F # # G H H G I F l m I G D 1 J K L M N O P Q b b b R S T U ",
"V W n V V V V 3 T r X y Y j k E Z Z Z Z $ 4 H $ 4 H $ `  ...+.Y @.#.#.$.H V V G G $.#.%.P P I I . ; = r 8 > &.*.=.*.D -.;.-.u j ",
"#.#.V #.V >.o ,.^ ..T y Z '.E ).).Z F !.=.Y ~.=.k D + ,.{.].+.~.^./.#.G P G G G G $.$.$.$.$.$.$.&.(._.r :.<.[.Y *.j D }.# }.F |.",
"}.G G V #.o j t q r 1.u u ).2.| 3.).4.4.  u 5.=.4 } | z ) ..6.7.j >.G P I G H H # I $.G V '.n l 1 8.9.r :.0.y G + a.V V V V m V ",
"3 u u u 2 y b.J / r c.{ v {.d.e.U f.f.U U g.y h.i.j.d.> k.r l.(.  $ + | $ 4 4 5 | 4 H H H H H $ } m.k.r n.K o.g.` < k ^.@.@.@.I ",
"p.q.{ ! J r., s.r r c.t.u. .) ! g g ) g h v.w.w.w.v.v.- ].r / ] x.w b.b.o.b.b.w 5.5.w y.y u 3 *.2 m.z.r A.B.] ] ' e P H G m a.V ",
"C.D.A.E.E./ - 8 F.G.= * H.r r H.E.].l.1.z.z.z.6.I.r r r / 9.J.- K.J ~ J L.o.~ {.M.> <.N.O.0.o.P.O.P.^ Q.8 H.l.- - T c Q P H H P ",
"r r H.H.R.0 T h K.{ > i S._.n.D.H.D.C./ & K.) ^ ^ - T  .i T.> K.) ^ / J.- ^ ^ X +.U.s.1.q V.T h a & & W.k.T ) { 0.L.X.Y.Y.Z.Z.Z.",
"7 T h h f h {.e.e.`.`. +{.> r.r..+++++@+K.] { ~ { ~ ~ J ] ; g & ^ t.#+t.$+^ ) e., K.q 0  .{.h h g %+K.> ~ ~ J &+> ) W.*+$+u.u.=+",
"y y -+,.1 1 2 2 3 ;+3 2 u 1 ` 3 p ~ ; ' ' e %+>+%+% ,+,+% % h a M - - W.- & U %+O K.a s , M.{.%+'+z e %+v  +& X 6.I._.:.*+8 / 8 ",
"~.k Y m.7.7.~.j Y *.)+!+7.D + E Y -+a ~+;.e ;.;.;.;.O O O >+h M - - M W.q h `.{+z %+' K.; e.d.g.{+z U ]+Q O e d ^+O ] { > g ^ ) ",
"5.y.(.<.b./+y (+|.|.|.@.(+(+(+!.Z h.e.K.' O O ;.O %+%+g %+K.h M - M s s 0 T e e z %+g > _+{.e.z z U ]+&.]+]+O -.  < < -+,.p m.p ",
"8.w J i J :+&+@.o V G G V m @.|.<+b.&+i , %+O  +%+%+g {., i ) #+t.#+& & - g ; `.%+' ) ! ! g {.U w.U  +d.U g U U 4 *.*.Y D [+7.7.",
"}+R h ^ S.V.v.G H P %.H F + D [.m.|+..k..+] K.> > ! i &+1+1+2+2+{ ++.+~ { ] ~ N.J &+{ ^ T.&+p.i ; i ; ; _+h  .y.;+3+3+|.).).Z ).",
"e f d 6 d g.} 4 1 y.5.b.5.y.y.y.> t...r r r 0 q 1.1.z./ / L G.G.t.4+R.( 5+s.- $+- $+k.6+..9. .|+) ! J N , +.T x 5.3+|.).).)+7+7+",
"z P 8+5 5 4 O e U U d 7 T f '+`.U.W.B W.G./ :.8 J.l.R.9 H.r r r 9+R.l.U.a M :.6+6+:.0+k.:.:.J.1.l...U.K.' }+h v a+)+)+[+[.]+g m.",
"b+{+. < } < &._ &.z 5 U d.%+%+-+>+'+; ; N ; , K.K.%+>+c+%+' & C.].g '+% O >+%+^+e g i p.i ; K., ) g .+Y.t.R.) 0.O.o.w :+d+A K X.",
"d.2 E l 4 8+8+8+H H P ]+[ 4 4 @ . : -.O &.O } } < : : Y *.;+N 0 +.'+  8+O &.&.8+&.`.-+{+j.<.t %+>+(.e+f+= = t.u.^ =+) =+g+0+Q.Q.",
"j.2 E V G I I P P I I H H $.$.V a.@.a.D k F E + F F a.o o *._ 5+R < k l 4 } 4 5 } -.-.-.  : {+]+S h+A.r B.e+! H.r H.9 6+r r r r ",
"M.M.2 $ m m W V G I G }.V V V V #.V V V n !.o !.o V >.'.^.).p U.i+5 !.'.$ 4.4 H 8+I I 8+@ D   i.< O h |+j+A p. .k.k.W.#+t.$+L / ",
".+r.m.v 1 D k . + 5 4 l }.V G V 7+j |.o a.# I H G # F >.!.Z (.s.I.U *.4.[.[.| ]+H 4 k + $ $ $ [.,.3 y k+j.l+b+v k+J J <.<.<.J <.",
"0+$+> &+M.{+p p N m.(.>+&.&.} 1 d.h.-+&.]+5 5 5 ]+&.-.} [._ K._.l.h U f.[ [ ]+[ 1 [ ]+1 [ ]+&.[.]+$ 1 <+m+)+a+<+<+<+b+3 3 y y y ",
"B.D.l.q :.r.J r.0.Y.Y.P.P.o.L.N..+J J N.P.L.Y.Z.Y.L.L.P.b.r.s.r s.&+A N.w w J w w x.8.m.k+J <.<.m.8.; j.=.*.*.[+).7+7+[.[.).<+<+",
"S.q a V.V.T a U.s.1.1.6.U.z.J./ 8 q X +.U.0 a ) ! ! ' h K.#+/ _.( 0 q S. ._+! ) K., & ^ ^ ^ #+^ $+g+=+=+[+*.Y Y )+).<+Z 4.3.<+<+",
"j.`.x.(., e ' a U.U.+.+.a 0 C.r E.0 s.h+h+6+..J.J.J.h+}+0 0 8 4+& s +.q 8 0 8 *+- s.E.9+R._.n+_.A...$+g Z *.Y Y a+a+).2.).Z Z Z ",
"o++ 2.} O O >+e e O %+>+{+M.K.E.r #+% >+O h g ,  .T d h e e e ;.%+%+&.e g g e ' %+,+,+%+e %+! @+@+@+e+f+[ ,.C '+{+d.j.y.y C C p ",
"| 2.[.4 ]+z &.,.2 Z # }.V F (.- r h ;+k k W @ } ,.`.&.5 5 @ @ -.D l # 4 } @       p+Y 3 *.  -+(.<.<.m.m.~ <.r.r.N.0.q.<.O.N.r.O.",
"G o+4.# 4 + . Y )+o n V >.!.u %+9+c k I V V a.=.7.5.7.. 4 F a.a.a.'.!.V m a.a.D l G m F a.7+| H f ]++ ^+& & a q a ^ h & U.5+a ' ",
"G H # !.m m 4 # o+G @.o >.>.[+U R ;.a.W V V G H %.b %.G G V '.V '.>.'.#.V n G I V G a.'.!.!.!.4.H o+G P & & 7 7 7 7 R +.+.R R U.",
"4 4 4 H P %.%.Q P o+l [.).)+w K.5+O + l l i.<+[.P b c | $ 4.# 4 E E o '.'.m G 8+I G 4 l F G F . 5 H P 4 >+p w w j.`.U '+m.<.x.'+",
"m.3 C 8.q+v j.M.k+y.m.&+> i 2+9.l., '+%+(.:+0.d+P.w C 1 &.4 4 _ ` u 5 5 b+U f f d 5 O ;.5 4 } O ^+d 5 5 1 3 q+u h.,.1 u 2 2 _ p ",
"V.g ! T.A X.K X.1+u.t.*+/ F.D.r+J.$+&+, ^ s+u.u.) ! `. +e %+>+^+d `.T ' .+.+> > ] ] ] ,+>+>+e K.' ' K.k+, %+j.m+Y m+;+Y Y u 3 Y ",
"A.9+9.9.9.k.9.:.D.r r r E.n.B.L / z.k.z.H.r r r r ..h K.g e 7 ].h+& h 1.G.:.k.; , K.g h h ' e ~+#+M 7 V.h g > y 7.x 7.7.=.. } 4 ",
"k.^ ) t.^ $+t.k.n.D.8 a #+M K.] ) ^ h S.- - a ^ ^ g _+! ; t+g  ._+ .' _.r r l.f U ^ h T q T a a M s a a T 6 d U i.2.[+=.F # D F ",
"; i ~ .+.+~ i 2+k.#+r.b.w t <.O.J m.m.J ~ ~ J <.m.v t+{.e.l+e.t+t+; > ) F.( ' %+`.e.e.g g g e g ' ' > M.`.'+>+%+4.| i.O 1   ` : ",
"d.`.'+% M.t+k+! s & `.m+m+2 p y m.m.w y C u y a+l+l+l+h.l+l+f.g.h.M.~ @+W.' (.  $ &.&.&.-.} [ 1 < -+&.. 2.. + | E C ; N ~ ~ r.P.",
" +i.i.d.{.w.8.J 0 u+b+*.m+m+u y y v y b+b+a+l+<+Z 2.<+<+<+<+<+l+h.e._+#+R.6 >+-.I 8+4 G 4 G 4 + } } @ l D l $ $ 2.! , K.B B ' #+",
"-+-+,.<+{.{.t+&+- 7 v [+m+a+m+<+<+i.l+f.e.h.-+1 2.m+m+2.h.l+l+g.e.j.i ) R.& % -.$ V V V @.@.k E k k . . + 4 l m H +.5+R.9+R.R.l.",
"%+z U d.t+, &+u.1.T t+<+]+]+i.<+i.j.v {.{.; t+e.g w.z e 5 e U g {.&+d+j+c.W.O.x._ j E a.E F H Q   &.Q f U < < | 5 e e h e h h ' ",
"q.r.~ > q.X.X.W.C.1.i J J (.8.8.v ; ! { v+{ ++++T.T.> > > > > i j+p.++Q.r c.X.d+0.P.O.y.C -+u+5+f , e T h h } [ [ &.< p m.p p y ",
"/ *+t.) t.W.8 W.Q._.J.g Z.Z.r.K.h #+t.W.= c.c.* :.$+! j+.+++.+! ^ ^ / r r n.J.:.) ! ! r.A >  .) { ! { 1+&+2+g 5 ]+4 &.. : =.k *.",
"r E.C.X 9._.G.#+B 8 H.5+~ ++#+& - G.F.E.6+].E.r ].0 X q 0 I.h+}+h+h+1.8 u.u.J.E.].R.( 0 7 X I.1.I.r H.E.].l.6 H 4 } [.E j j j =.",
"^ ^ q T , .+++~ ! j+! , K.! ! { ++W.R.0 U  +%+U {+`.`.`.%+U  +e &.-+g.'+> x.8.e e e e e e e g e T - T T d h 5 ]+4 4 # o |.|.E E ",
"Q ]+1 <+g., , ; e., > > > J J p.1+4+H.6 ,.k k a.a.E + 4 } [.Z =.4.[+[.1 @ + . l . 4 4 4 4 4 < _ p c+p c+>+;.Q H I 4 4 m l 4 H + ",
"E !.!.!.[. +%+%+e.g {.g e., i N.p.z.r 6 k @.@.n n @.|.|.|.a.'.j D E 2.2.E E a.a.n '.7+F F F # # 4.Z D a.l $ 4 @ $ m m G # 8+2.t+",
").).).!.[. +U  +w.f  + +U %+M.> A k.H.Q k V a.a.n @.D # G G G l =.4.| 2.=.D a.m m !.!.'.G l !.G G # G G F =.D D D F m G # O {.! ",
"<+2.2.[.e.e.M.t+t+e.e. +w. +{.{..+k.C.g _ D F E ).Z E 4.4.Z [+D 8+4 . 2.. @ l 4 G H H I H I F F l D Z | <+2.[.[.D l $ 4.F 4 1.I.",
"{.e. +g K.! k+J k+{.t+v t+e.g e.1+L n.) Y.o.m.y C 1 [.2.,.b+b+3 p _ {+C '+'+_ < p+. } 3 3 _ p 3 ,.: _ e.f.f. +U } 4 5 H 5 } x.M.",
"i i ! > { , & ) A r.J k+k+J N.N.@+n.r = { N.J ~ 8.8.N m.J .+p.r.N.q.q.q.d+X.0.N.L.0.O.O.N.q.q.N.J J J J :+p.p.J J O.b.w J y.y.y ",
"e+{  .^ a +.R.].s s 0 R +.U.a ' 4+_.D.r r E.( 0 a g K.' M *+L 8 / 0+$+:.= k.8 _./ U.- q 9.L = = *+*+*+k.$+- k.u.i ! j+=+k._+<.J ",
"= 0 6 6 6 6 R 5+w+}+R 6 R w+w+R 6 K.] T R 5+5+U.a a a 4+s.G.B.D.n.= J.J.n.E.6+..].( :.J.J.c.D.r n.....l.1.l.}+0 ( C.l...r ..i J ",
"{ e 8+8+-.: >+t O.x+t ;+;+>+8+^+^+d z >+;.^+^+;.;.^+Q a & #+8 c.k. ._+; ! g ) > > , > i T.j+L _.l.q ' d a R R U.5+E.].].E.l.+.6.",
"'+} V V I }.k ~.k }.# }.@.}.I $.# l I $.$.I 8+I # a.@ p (.#+R.X J % m.y.C p p 3 p+_ {+{+k+k+- & & %+p p+` 1 < &.;.e O e d f -+&.",
"2.D @.@.V >.o @.@.@.W @.@.a.G V n a.@.a.@.k W W y+$.V k < e +.d (.2 D F k D a.}.l 4 l Z ,. +7 %+p p+@ D k j ~.Y Y ;+;+;+5.Y l =.",
"2.Z F o '.G H 4 W }.# }.a.a.a.m # !.F a.k D k @.n V $.k p+e q m.m.2.G !.8+l !.D @ }.a.4.).d.6 f ,.. k ~.|.^.o V + k p+3 ~.*.j m+",
"a.m l 4 F a.}.m }.l 1 } 4 G }.l } } [.1 2.<+[.$ 4 $.$.k t & E.V.J d.m+7+[.4.G 4 4 4 4 | {+8.z.6 C 3 =.. Z j E # [.2 u y m+| [.2 ",
"  . + 3 : : p+k k 4._ 8+I 8+. l -.p+< _ ` Y : $ 8+P -.p w - r C.j+i v d.h.h.d.m.O.o.y.d.> .+$+V.% {+< u C m.y u J 8.v 8.j.v j.t+",
"O.O.o.P.b.b.<.m.<.p t t t t x+5.5.t (.'+T x.y._ } p+x+t ~ k.r n.j+.+J N.0.Y.L.q.{ { q.L.X.++= 1.! ~ ~ ] 8.N.N.0.A .+A p.&+J p.d+",
"'  .h ^  .g v.u+T 6.6.S 6 S R S S u+d ].r 6.e `.%+>+% , ) q n+B.6+C.s ! j+B *+9 H.l.T  .k.= c._.0 0 1.( 1.( C.6+r * t.W.- q / * ",
"I.}+I.I.}+6.6.R T +.6.w+w+w+i+}+i+i+i+i+w+6.+.U.6 w+R d d T - ^ ( E.E.l...r r H.8 - q T  .) 8 C.s M U.s.s.0 ( E.D.* _.R.( 0 6+n.",
"O ;.e e %+O O -+h.d.C -+1 _ 3 < -.-.O -+&.^+e %+N % d 5 f f , > K.T S & #+W.q @+r.~ m.m./+8.' & ' ' ,+%+] ] ) ) B W.q U.a K.K.! ",
"8+8+@ @ @ @ + *.D 4.=.Y =.. k D k k }.D -.k p+. 3 _ ` Y *.3 ;+;+y.m.C p (.K.> (.C j.q+u q+2 _ p ,.p+3 3 m+C 8.k+r.<.%+3 p _ _ e ",
"}.W W }.a.n a.k a.a.G G G m }.W W W @.k k @.|.).[+[+@ + F k p+[+2.*.u u {+S 5 x a+7.7.)+).!.|.Z E o o ^.!.7+<+l+j.1 } k |.a.# H "};
